<svg width="24" height="22" viewBox="0 0 24 22" fill="none" xmlns="http://www.w3.org/2000/svg">
<g id="Group">
<path id="Vector" d="M11.4928 10.2698C11.1028 9.93977 11.1028 9.69977 10.0128 9.70977C9.6074 9.76973 9.2291 9.94925 8.92627 10.2254C8.62344 10.5015 8.40984 10.8616 8.3128 11.2598C8.22238 11.5591 8.22461 11.8788 8.3192 12.1768C8.41379 12.4749 8.59631 12.7374 8.8428 12.9298C9.18764 13.1248 9.58142 13.2163 9.97695 13.1933C10.3725 13.1702 10.753 13.0336 11.0728 12.7998C11.4132 12.6062 11.6783 12.3034 11.8253 11.9405C11.9722 11.5776 11.9925 11.1757 11.8828 10.7998C11.7981 10.5938 11.6642 10.4119 11.4928 10.2698ZM10.4928 11.9798C10.3405 12.0934 10.1589 12.1613 9.96944 12.1754C9.77993 12.1896 9.59032 12.1495 9.4228 12.0598C9.1728 11.8998 9.2128 11.5598 9.3128 11.2598C9.4128 10.9598 9.6828 10.4798 10.0228 10.4198C10.1813 10.4006 10.3421 10.4196 10.4917 10.4753C10.6413 10.531 10.7754 10.6217 10.8828 10.7398C10.9823 10.8261 11.0523 10.9416 11.0828 11.0698C11.2228 11.4598 10.8928 11.7798 10.5328 11.9798H10.4928Z" fill="#CFFF55"/>
<path id="Vector_2" d="M5.57273 15.51C5.18273 15.18 5.18273 14.94 4.08273 14.95C3.67914 15.0118 3.30301 15.1921 3.00211 15.4681C2.70121 15.7441 2.4891 16.1033 2.39273 16.5C2.29336 16.8048 2.29097 17.133 2.38589 17.4393C2.48081 17.7455 2.66837 18.0148 2.92273 18.21C3.26757 18.4051 3.66135 18.4966 4.05688 18.4735C4.4524 18.4505 4.83288 18.3138 5.15273 18.08C5.49309 17.8864 5.75819 17.5837 5.90518 17.2207C6.05217 16.8578 6.07244 16.4559 5.96273 16.08C5.88394 15.8596 5.74961 15.6633 5.57273 15.51ZM4.57273 17.22C4.42041 17.3336 4.23886 17.4015 4.04936 17.4157C3.85986 17.4298 3.67025 17.3897 3.50273 17.3C3.25273 17.14 3.29273 16.8 3.39273 16.5C3.49273 16.2 3.75273 15.72 4.10273 15.66C4.25961 15.6425 4.41841 15.6623 4.56615 15.7179C4.71389 15.7736 4.84636 15.8634 4.95273 15.98C5.05495 16.0658 5.12827 16.1811 5.16273 16.31C5.30273 16.7 5.00273 17.02 4.61273 17.22H4.57273Z" fill="#CFFF55"/>
<path id="Vector_3" d="M16.7727 10.1398C16.3627 9.78982 16.3627 9.56982 15.2827 9.56982C14.8779 9.63233 14.5008 9.81413 14.1998 10.092C13.8987 10.3699 13.6874 10.7312 13.5927 11.1298C13.4942 11.4332 13.4922 11.7597 13.5871 12.0642C13.6821 12.3687 13.8692 12.6362 14.1227 12.8298C14.4652 13.0325 14.8603 13.1283 15.2576 13.1052C15.6548 13.082 16.0361 12.9409 16.3527 12.6998C16.6931 12.5062 16.9582 12.2035 17.1052 11.8405C17.2522 11.4776 17.2725 11.0757 17.1627 10.6998C17.0841 10.4822 16.9496 10.2891 16.7727 10.1398ZM15.7727 11.8498C15.6204 11.9634 15.4389 12.0313 15.2494 12.0455C15.0599 12.0597 14.8703 12.0195 14.7027 11.9298C14.4527 11.7698 14.4927 11.4198 14.5927 11.1198C14.6927 10.8198 14.9527 10.3398 15.3027 10.2898C15.5319 10.2522 15.767 10.2955 15.9677 10.4123C16.1684 10.529 16.3222 10.712 16.4027 10.9298C16.5027 11.3298 16.1727 11.6398 15.8127 11.8498H15.7727Z" fill="#CFFF55"/>
<path id="Vector_4" d="M10.8528 15.3796C10.4628 15.0496 10.4628 14.8096 9.36284 14.8096C8.95485 14.8641 8.57362 15.0432 8.27117 15.3223C7.96871 15.6015 7.75977 15.9672 7.67284 16.3696C7.57272 16.6728 7.57 16.9998 7.66504 17.3046C7.76009 17.6095 7.94814 17.877 8.20284 18.0696C8.54627 18.2708 8.94195 18.365 9.33921 18.34C9.73647 18.3151 10.1173 18.1722 10.4328 17.9296C10.7732 17.736 11.0383 17.4332 11.1853 17.0703C11.3323 16.7074 11.3526 16.3055 11.2428 15.9296C11.1626 15.7156 11.0283 15.5261 10.8528 15.3796ZM9.85284 17.0896C9.70052 17.2032 9.51898 17.2711 9.32947 17.2852C9.13997 17.2994 8.95036 17.2593 8.78284 17.1696C8.52284 17.0096 8.57284 16.6596 8.67284 16.3596C8.77284 16.0596 9.03284 15.5796 9.38284 15.5296C9.53891 15.5108 9.69722 15.5291 9.8449 15.5829C9.99259 15.6368 10.1255 15.7247 10.2328 15.8396C10.3351 15.9254 10.4084 16.0406 10.4428 16.1696C10.5728 16.5696 10.2528 16.9296 9.89284 17.0896H9.85284Z" fill="#CFFF55"/>
<path id="Vector_5" d="M21.3028 10.2399C20.9128 9.89992 20.9028 9.66992 19.8128 9.66992C19.4048 9.72444 19.0236 9.90351 18.7211 10.1827C18.4187 10.4619 18.2097 10.8276 18.1228 11.2299C18.0227 11.5332 18.02 11.8601 18.115 12.165C18.21 12.4698 18.3981 12.7373 18.6528 12.9299C18.9953 13.1326 19.3904 13.2284 19.7876 13.2053C20.1849 13.1821 20.5662 13.041 20.8828 12.7999C21.2231 12.6063 21.4883 12.3036 21.6352 11.9406C21.7822 11.5777 21.8025 11.1758 21.6928 10.7999C21.6141 10.5823 21.4796 10.3892 21.3028 10.2399ZM20.3028 11.9499C20.1505 12.0635 19.9689 12.1314 19.7794 12.1456C19.5899 12.1598 19.4003 12.1196 19.2328 12.0299C18.9728 11.8699 19.0228 11.5199 19.1228 11.2199C19.2228 10.9199 19.4828 10.4399 19.8328 10.3899C20.0557 10.362 20.2815 10.41 20.4738 10.5261C20.6661 10.6422 20.8137 10.8197 20.8928 11.0299C21.0028 11.4299 20.7028 11.7399 20.3428 11.9299L20.3028 11.9499Z" fill="#CFFF55"/>
<path id="Vector_6" d="M14.5527 14.9296C14.1491 14.9914 13.773 15.1717 13.4721 15.4477C13.1712 15.7237 12.9591 16.0829 12.8627 16.4796C12.7633 16.7844 12.7609 17.1126 12.8559 17.4189C12.9508 17.7251 13.1383 17.9944 13.3927 18.1896C13.7383 18.3823 14.1316 18.4724 14.5266 18.4494C14.9216 18.4263 15.3018 18.2911 15.6227 18.0596C15.9631 17.866 16.2282 17.5633 16.3752 17.2003C16.5221 16.8374 16.5424 16.4355 16.4327 16.0596C16.277 15.6982 16.0119 15.3947 15.6746 15.192C15.3373 14.9893 14.9449 14.8975 14.5527 14.9296ZM15.0827 17.1996C14.9304 17.3132 14.7488 17.3811 14.5593 17.3953C14.3698 17.4094 14.1802 17.3693 14.0127 17.2796C13.7627 17.1196 13.8027 16.7796 13.9027 16.4696C14.0027 16.1596 14.2727 15.6996 14.6127 15.6396C14.7688 15.6208 14.9271 15.6391 15.0748 15.693C15.2224 15.7468 15.3554 15.8348 15.4627 15.9496C15.5631 16.037 15.636 16.1517 15.6727 16.2796C15.7727 16.6496 15.4427 16.9296 15.0827 17.1696V17.1996Z" fill="#CFFF55"/>
<g id="Group_2">
<path id="Vector_7" d="M15.7627 2.79977C15.6498 3.55797 15.7324 4.33245 16.0027 5.04977C16.1835 5.40147 16.4866 5.67492 16.855 5.81859C17.2234 5.96227 17.6316 5.96624 18.0027 5.82977C18.2552 5.76861 18.4882 5.64498 18.6804 5.47025C18.8727 5.29551 19.0179 5.07527 19.1027 4.82977C19.2663 4.26862 19.3273 3.68257 19.2827 3.09977V2.75977V1.63977C19.2977 1.41835 19.2643 1.19634 19.1848 0.989127C19.1054 0.781914 18.9819 0.594459 18.8227 0.439766C18.2896 0.0781169 17.6394 -0.068362 17.0027 0.0297664C16.9599 0.0284264 16.9172 0.0357131 16.8772 0.0511936C16.8372 0.0666741 16.8008 0.0900326 16.77 0.119882C16.7392 0.149731 16.7147 0.185462 16.698 0.224953C16.6813 0.264444 16.6727 0.306888 16.6727 0.349766C16.6482 0.288103 16.6026 0.23716 16.5439 0.206024C16.4853 0.174888 16.4176 0.165582 16.3527 0.179766C16.2874 0.19807 16.2276 0.232322 16.1787 0.279448C16.1298 0.326574 16.0934 0.385098 16.0727 0.449766C16.0131 0.799767 15.9897 1.15497 16.0027 1.50977L15.8627 2.11977C15.8106 2.34327 15.7772 2.57072 15.7627 2.79977ZM16.5927 2.38977C16.5927 2.38977 16.7527 0.529766 16.7527 0.459766C16.778 0.51861 16.8197 0.568848 16.873 0.60436C16.9263 0.639871 16.9887 0.659122 17.0527 0.659766C17.9527 0.659766 18.3327 0.829766 18.4327 1.17977C18.4652 1.81602 18.4216 2.45387 18.3027 3.07977C18.3055 3.46691 18.2618 3.853 18.1727 4.22977C18.1027 4.46977 18.0127 4.70977 17.7627 4.76977C17.6652 4.81396 17.559 4.83583 17.4519 4.83378C17.3448 4.83172 17.2395 4.8058 17.1437 4.7579C17.0479 4.70999 16.964 4.64132 16.8981 4.55687C16.8322 4.47243 16.7859 4.37434 16.7627 4.26977C16.6038 3.65659 16.5464 3.02151 16.5927 2.38977Z" fill="#CFFF55"/>
<path id="Vector_8" d="M8.55286 2.48977C8.55286 2.58977 8.62286 2.68977 9.01286 2.72977C9.57286 2.72977 9.81286 2.90977 10.5829 2.94977H11.8429H13.0929C13.7829 2.94977 14.2029 2.88977 14.9029 2.83977C15.2329 2.83977 15.4929 2.19977 15.0529 2.08977C14.2929 2.05977 13.7729 1.92977 13.0029 1.92977H11.0029C10.3845 1.92773 9.76662 1.96446 9.15286 2.03977C8.73286 2.06977 8.54286 2.33977 8.55286 2.48977Z" fill="#CFFF55"/>
<path id="Vector_9" d="M23.0028 2.99992C22.6654 2.63281 22.2211 2.38095 21.7328 2.27992C21.27 2.15752 20.7906 2.11025 20.3128 2.13992C19.6028 2.23992 19.7928 2.72992 20.1628 2.72992C20.4979 2.72656 20.8326 2.75334 21.1628 2.80992C21.6616 2.84554 22.129 3.06674 22.4728 3.42992C22.7058 3.89731 22.8387 4.40822 22.8628 4.92992C22.9628 5.70992 23.0428 6.71992 23.0928 7.82992C21.6228 7.82992 18.6728 7.70992 15.3628 7.64992H11.9728H8.58282C5.00282 7.67992 1.89282 7.79992 0.912815 7.83992C0.906469 6.33118 1.06067 4.82604 1.37282 3.34992C1.47119 3.16933 1.61542 3.01786 1.79098 2.91077C1.96654 2.80368 2.16723 2.74475 2.37282 2.73992C2.78814 2.63886 3.21591 2.59844 3.64282 2.61992C3.69934 2.6102 3.7513 2.58272 3.79116 2.54148C3.83103 2.50024 3.85672 2.44737 3.86452 2.39055C3.87232 2.33372 3.86182 2.27589 3.83454 2.22544C3.80727 2.17498 3.76463 2.13452 3.71282 2.10992C3.09333 1.97573 2.4523 1.97573 1.83282 2.10992C1.58744 2.16896 1.35887 2.2835 1.1647 2.44472C0.970537 2.60595 0.815943 2.80957 0.712815 3.03992C0.322815 3.95992 -0.0771847 9.03992 0.0128153 13.5399C0.0828153 16.8099 0.472815 19.7399 1.19282 20.6199C1.72282 21.2599 3.10282 21.6199 4.84282 21.7599C7.55282 21.9399 11.1528 21.6399 13.0128 21.6399C15.3487 21.7139 17.6869 21.6371 20.0128 21.4099C21.0614 21.3188 22.0812 21.0197 23.0128 20.5299C23.2842 20.2999 23.4649 19.9809 23.5228 19.6299C23.8789 17.5764 24.0396 15.4938 24.0028 13.4099C24.0028 8.92992 23.6328 3.73992 23.0028 2.99992ZM22.7528 18.4599C22.6971 18.8988 22.5862 19.3288 22.4228 19.7399C21.3038 20.2083 20.1058 20.4595 18.8928 20.4799C16.5528 20.6699 13.9728 20.5799 13.0128 20.5799C11.1728 20.5799 7.60282 20.8899 4.91282 20.7299C3.53281 20.6499 2.39282 20.5099 1.97282 20.0099C1.29282 19.2199 1.00282 16.5299 0.912815 13.5599C0.846334 11.8507 0.839664 10.1396 0.892815 8.42992C1.89282 8.42992 4.94281 8.58992 8.58282 8.65992H11.9728H15.3628C18.6928 8.59992 21.6528 8.50992 23.1128 8.46992C23.1128 9.46992 23.1628 10.5999 23.1128 11.6999C23.1329 13.9585 23.0126 16.2162 22.7528 18.4599Z" fill="#CFFF55"/>
<path id="Vector_10" d="M4.48282 2.76971C4.40585 3.57045 4.48395 4.37853 4.71282 5.14971C4.89355 5.50141 5.19668 5.77486 5.56508 5.91854C5.93347 6.06221 6.3417 6.06619 6.71282 5.92971C6.9675 5.87092 7.20302 5.74828 7.39721 5.57333C7.5914 5.39839 7.73787 5.17689 7.82282 4.92971C7.9929 4.363 8.05398 3.76918 8.00282 3.17971V2.11971V1.71971C8.01642 1.49843 7.9824 1.2768 7.90305 1.06979C7.82369 0.862779 7.70085 0.6752 7.54282 0.519712C7.01152 0.153636 6.36081 0.00347292 5.72282 0.0997119C5.6353 0.0997119 5.55136 0.13448 5.48947 0.196367C5.42759 0.258254 5.39282 0.342191 5.39282 0.429712C5.36828 0.368049 5.32264 0.317106 5.26403 0.28597C5.20542 0.254833 5.13765 0.245528 5.07282 0.259712C5.00744 0.278016 4.94763 0.312268 4.89876 0.359394C4.84989 0.406519 4.81349 0.465043 4.79282 0.529712C4.71774 0.858145 4.67421 1.193 4.66282 1.52971L4.55282 2.05971V2.31971L4.48282 2.76971ZM5.30282 2.47971C5.30282 2.47971 5.46282 0.629712 5.46282 0.549712C5.48533 0.611206 5.52616 0.664314 5.57981 0.701867C5.63346 0.73942 5.69734 0.75961 5.76282 0.759712C6.66282 0.759712 7.04282 0.929712 7.14282 1.27971C7.172 1.91636 7.125 2.55422 7.00282 3.17971C7.0037 3.56676 6.96008 3.95263 6.87282 4.32971C6.81282 4.55971 6.72282 4.79971 6.47282 4.85971C6.37525 4.90391 6.26904 4.92578 6.16195 4.92372C6.05485 4.92167 5.94956 4.89575 5.85375 4.84784C5.75795 4.79994 5.67404 4.73126 5.60813 4.64682C5.54223 4.56237 5.49601 4.46429 5.47282 4.35971C5.31206 3.74685 5.2546 3.11147 5.30282 2.47971Z" fill="#CFFF55"/>
</g>
</g>
</svg>
