<svg width="75" height="4" viewBox="0 0 75 4" fill="none" xmlns="http://www.w3.org/2000/svg">
<g id="Underline">
<path id="Vector" d="M65.03 0.759999C65.03 0.759999 65.04 0.799999 65.03 0.819999L65.13 0.759999C65.42 0.789999 65.78 0.759999 66.06 0.799999C66.17 0.809999 66.12 0.889999 66.49 0.889999C66.64 0.889999 66.53 0.819999 66.64 0.829999L66.68 0.899999C67.15 0.939999 67.7 0.949999 68.17 0.989999C68.24 0.989999 68.47 1.18 68.51 1.01H68.57C68.51 1.09 68.96 1.12 69.1 1.13C69.65 1.18 70.22 1.15 70.76 1.24C71.5 1.36 72.31 1.4 73.08 1.56C73.26 1.6 73.71 1.75 73.89 1.79C74.04 1.82 74.24 1.84 74.4 1.85C74.32 2.04 74.61 2.29 74.62 2.46C74.62 2.53 74.56 2.82 74.54 2.9C74.52 2.97 74.14 3.41 74.08 3.43C73.98 3.46 73.81 3.42 73.77 3.43V3.52H73.64C73.64 3.41 73.3 3.41 73.13 3.37C73.06 3.35 72.7 3.2 72.67 3.19C72.48 3.15 72.17 3.15 71.97 3.11C71.85 3.09 71.86 3.03 71.81 3.02C71.55 2.98 71.24 3.03 70.96 2.95C70.91 2.93 70.96 2.88 70.76 2.87C70.61 2.87 70.34 3.03 70.2 2.85H70.11C70.05 3.02 69.77 2.83 69.71 2.83C69.6 2.82 69.25 2.8 69.16 2.81C69.14 2.81 69.03 2.92 68.8 2.86L68.93 2.74C68.87 2.71 68.51 2.78 68.56 2.66L68.41 2.74C68.17 2.67 67.7 2.76 67.6 2.62L67.53 2.68C66.9 2.65 66.26 2.6 65.64 2.66C65.62 2.76 65.87 2.71 65.65 2.82L65.07 2.79C65.01 2.67 65.34 2.76 65.38 2.74L65.36 2.64C65.36 2.64 65.29 2.61 65.23 2.6C65.1 2.58 64.18 2.57 64.06 2.58C64 2.58 64.04 2.64 63.99 2.64H63.9C63.75 2.39 63.38 2.75 63.25 2.54L63.19 2.6H63.07C63 2.58 63.07 2.45 62.65 2.51C62.58 2.52 62.62 2.59 62.44 2.56C62.42 2.56 62.24 2.35 62.22 2.58C61.98 2.6 62.22 2.44 61.94 2.47C61.89 2.47 61.88 2.55 61.81 2.56C61.75 2.56 61.65 2.52 61.57 2.52C61.31 2.52 61.06 2.52 60.79 2.49L60.85 2.59C60.59 2.64 60.44 2.49 60.32 2.5C60.3 2.5 60.29 2.56 60.24 2.56C60.01 2.57 59.8 2.58 59.57 2.6C59.55 2.6 59.4 2.72 59.16 2.64V2.55C59.03 2.53 58.99 2.58 58.97 2.64H58.85C58.85 2.55 58.74 2.56 58.6 2.56V2.65C58.34 2.62 58.34 2.74 58.09 2.7C58.02 2.81 58.33 2.73 58.4 2.78C58.53 2.88 58.05 2.86 57.97 2.82L57.9 2.63L57.59 2.71L57.66 2.6L57.54 2.58L57.46 2.74C57.2 2.74 57.09 2.68 56.91 2.59L56.8 2.68L56.15 2.62L56.33 2.76H55.89V2.65C55.52 2.56 55.27 2.65 55.2 2.84C55.07 2.84 55.17 2.74 55.14 2.71C55.14 2.7 54.74 2.7 54.7 2.71C54.5 2.73 54.56 2.84 54.29 2.84C53.94 2.84 54.13 2.73 53.98 2.7C53.88 2.68 53.73 2.72 53.61 2.71C53.47 2.71 53.35 2.66 53.19 2.69C53.13 2.7 53.14 2.79 53.02 2.74C53 2.74 53.07 2.65 52.9 2.67C52.84 2.77 53.04 2.8 53.14 2.86C52.96 2.88 52.77 2.84 52.37 2.87C52.35 2.87 52.17 3.01 52.01 2.92C51.85 2.83 52.49 2.88 52.33 2.74C52.07 2.73 51.84 2.68 51.7 2.81C51.81 2.81 51.97 2.82 51.88 2.9C51.81 2.96 42.7 3.31 42.7 3.31L42.66 3.4C42.6 3.32 42.5 3.29 42.32 3.29V3.42C42.26 3.42 42.15 3.42 42.13 3.42C41.99 3.36 42.3 3.37 42.26 3.33L41.89 3.31L41.85 3.41C41.6 3.44 41.7 3.32 41.51 3.33L41.54 3.43C41.48 3.49 41.15 3.43 41.13 3.4L41.17 3.32L41.38 3.27L40.7 3.24C40.73 3.34 41.13 3.27 41.07 3.38C41.02 3.41 40.28 3.41 40.17 3.4C40.15 3.4 40.08 3.3 39.89 3.33L40.02 3.24H39.58C39.49 3.41 39.85 3.34 39.82 3.46H39.05L39.01 3.52L38.86 3.45C38.8 3.55 38.64 3.5 38.45 3.5C38.43 3.38 38.72 3.5 38.64 3.35L38.73 3.42C38.84 3.45 38.85 3.38 38.83 3.34C38.79 3.27 38.41 3.33 38.3 3.27C38.15 3.29 37.87 3.27 37.75 3.3C37.68 3.32 37.75 3.39 37.58 3.36V3.3L37.48 3.36C37.27 3.36 36.89 3.32 36.71 3.34C36.59 3.35 36.59 3.41 36.54 3.41C36.15 3.43 35.61 3.38 35.2 3.41C34.79 3.44 33.98 3.42 33.67 3.5C33.57 3.53 32.9 3.5 32.75 3.49C32.64 3.48 32.48 3.46 32.53 3.39H33.18L33.28 3.33C33.34 3.52 33.59 3.33 33.62 3.33C33.71 3.33 34.28 3.38 34.34 3.35L34.31 3.25C34.19 3.2 33.71 3.18 33.72 3.29L33.63 3.22C33.49 3.19 33.56 3.27 33.49 3.28C33.32 3.29 33.07 3.25 32.89 3.25L32.78 3.37C32.61 3.39 32.68 3.31 32.57 3.27C32.54 3.27 31.89 3.23 31.97 3.33L31.87 3.26C31.63 3.22 31.52 3.35 31.25 3.33L31.22 3.23C31.06 3.19 31.12 3.28 31.05 3.29C30.79 3.31 30.86 3.22 30.81 3.21C30.77 3.22 30.76 3.33 30.65 3.27C30.63 3.26 30.7 3.2 30.59 3.2C30.56 3.35 30.24 3.24 30.06 3.24C29.85 3.24 29.25 3.19 29.12 3.2C28.97 3.2 28.99 3.28 28.92 3.29C28.88 3.29 28.42 3.3 28.37 3.3C28.14 3.28 28.19 3.2 28.11 3.19C27.76 3.13 27.8 3.24 27.63 3.27C27.31 3.32 27.17 3.24 26.88 3.23C26.59 3.22 26.04 3.21 25.75 3.21C25.63 3.21 25.66 3.28 25.54 3.29C25.43 3.29 25.34 3.26 25.26 3.26C25.22 3.26 25.22 3.32 25.18 3.32C24.83 3.35 24.62 3.24 24.45 3.23C24.34 3.23 24.2 3.27 24.07 3.27C23.82 3.27 23.41 3.19 23.33 3.3H23.24C23.28 3.21 22.97 3.21 22.83 3.21C22.72 3.21 22.75 3.27 22.6 3.28C22.35 3.29 21.95 3.23 21.65 3.26C21.58 3.26 21.65 3.35 21.48 3.32L21.45 3.25L21.38 3.31C20.9 3.31 20.43 3.26 19.97 3.31L19.86 3.37L19.82 3.3C19.59 3.3 19.3 3.26 19.08 3.27C18.95 3.27 18.43 3.34 18.21 3.35L16.92 3.31L16.68 3.46H16.56C16.56 3.46 16.56 3.4 16.51 3.39C16.38 3.36 15.66 3.32 15.55 3.35C15.06 3.45 14.82 3.35 14.29 3.37C14.11 3.37 13.93 3.43 13.72 3.39L13.68 3.48C13.68 3.48 13.22 3.45 13.1 3.46C13.03 3.46 13.1 3.56 12.93 3.52L12.9 3.45L12.83 3.51L12.35 3.49L12.31 3.42L12.02 3.54L11.1 3.5L11.03 3.56L10.94 3.49L10.91 3.55L10.88 3.48H10.76C10.76 3.48 10.78 3.53 10.72 3.54C10.23 3.58 9.38003 3.51 8.86003 3.52C8.74003 3.52 8.80003 3.58 8.68003 3.58C8.52003 3.58 8.08003 3.56 7.93003 3.55C7.81003 3.54 7.85003 3.49 7.80003 3.48C7.54003 3.43 7.64003 3.55 7.50003 3.53C7.44003 3.41 7.12003 3.46 6.89003 3.43C6.73003 3.41 6.58003 3.37 6.43003 3.34C6.51003 3.13 6.30003 3.07 6.15003 2.91C5.94003 2.91 5.67003 2.85 5.47003 2.88C5.34003 2.9 5.38003 2.97 5.22003 2.94C5.19003 2.94 5.22003 2.88 5.10003 2.87C4.73003 2.83 4.24003 2.85 3.85003 2.82C3.70003 2.81 3.15003 2.77 3.20003 2.69L3.10003 2.75C2.88003 2.77 2.90003 2.69 2.85003 2.68C2.39003 2.59 1.99003 2.57 1.56003 2.42C1.21003 2.29 1.31003 2.16 1.23003 2.03C1.01003 1.68 1.10003 1.81 1.08003 1.47C1.06003 1.16 0.790032 0.819999 1.11003 0.529999C1.17003 0.479999 1.27003 0.479999 1.32003 0.439999C1.47003 0.339999 1.39003 0.229999 1.76003 0.259999V0.359999C1.96003 0.399999 1.81003 0.279999 1.98003 0.309999C2.04003 0.309999 1.98003 0.369999 2.05003 0.379999C2.20003 0.409999 2.82003 0.449999 2.96003 0.419999C3.03003 0.399999 3.03003 0.349999 3.10003 0.339999C3.32003 0.319999 4.25003 0.399999 4.64003 0.389999C4.77003 0.389999 4.97003 0.399999 4.94003 0.319999C5.05003 0.319999 4.94003 0.379999 5.09003 0.389999C5.46003 0.429999 5.43003 0.349999 5.48003 0.339999C5.78003 0.309999 5.75003 0.409999 5.78003 0.419999C5.80003 0.319999 6.22003 0.329999 6.19003 0.439999L6.25003 0.379999H6.37003L6.43003 0.449999L6.56003 0.299999L6.65003 0.399999C6.86003 0.349999 7.13003 0.409999 7.32003 0.399999C7.37003 0.399999 7.34003 0.339999 7.45003 0.339999C7.85003 0.339999 9.07003 0.439999 9.37003 0.359999C9.43003 0.349999 9.51003 0.199999 9.63003 0.369999H9.75003C10.11 0.239999 10.95 0.369999 11.44 0.359999C11.55 0.359999 11.5 0.309999 11.62 0.299999C11.83 0.279999 12.04 0.329999 12.24 0.329999C13.57 0.329999 14.98 0.389999 16.19 0.249999C16.55 0.209999 17.23 0.309999 17.6 0.279999C18.49 0.209999 19.25 0.279999 20.17 0.269999C20.29 0.269999 20.23 0.209999 20.35 0.209999C21.03 0.199999 21.85 0.259999 22.54 0.249999C22.66 0.249999 22.6 0.189999 22.72 0.189999C23.17 0.189999 23.94 0.259999 24.33 0.229999C24.35 0.229999 24.53 0.0699987 24.56 0.239999H24.62C24.62 0.239999 24.62 0.189999 24.67 0.179999C24.99 0.109999 26.06 0.199999 26.47 0.199999C26.59 0.199999 26.53 0.139999 26.65 0.139999C27.11 0.139999 27.74 0.189999 28.21 0.179999C28.31 0.179999 28.44 0.0199987 28.49 0.179999H28.58L28.7 0.129999C29.13 0.129999 30.69 0.209999 30.93 0.169999C31.45 0.0799987 32.12 0.139999 32.69 0.149999C32.95 0.149999 33.22 0.129999 33.49 0.159999L33.53 0.0999987L33.65 0.169999L33.69 0.109999C34.17 0.0799987 34.73 0.159999 35.18 0.149999C35.39 0.149999 35.78 0.0899987 36.11 0.0999987C37.12 0.109999 38.3 0.209999 39.24 0.139999C39.83 0.0899987 40.63 0.199999 41.21 0.159999C41.25 0.159999 41.25 0.0599987 41.52 0.109999C41.57 0.119999 41.54 0.209999 41.91 0.189999C42.03 0.189999 41.99 0.129999 42.05 0.129999C42.34 0.109999 42.91 0.189999 43.09 0.139999C43.17 0.119999 43.23 -0.0200013 43.35 0.149999L43.42 0.0899987C43.55 0.0999987 43.71 0.0899987 43.83 0.109999C43.86 0.109999 44.17 0.319999 44.25 0.129999H44.37L44.43 0.199999L44.52 0.119999C44.86 0.149999 45.28 0.179999 45.63 0.179999C45.72 0.179999 45.84 0.139999 46.01 0.139999C46.54 0.139999 47.24 0.259999 47.8 0.219999C47.85 0.219999 47.85 0.119999 48.02 0.169999V0.229999L48.18 0.169999C48.31 0.189999 48.5 0.169999 48.61 0.189999C48.66 0.189999 48.64 0.299999 48.77 0.259999C48.77 0.259999 48.77 0.209999 48.81 0.199999C49.02 0.129999 49.31 0.229999 49.55 0.239999C49.97 0.249999 50.38 0.219999 50.8 0.259999L50.92 0.199999L51.17 0.279999C51.38 0.189999 51.95 0.229999 52.23 0.259999C52.34 0.269999 52.36 0.369999 52.53 0.369999L52.6 0.269999L53.16 0.289999L53.4 0.399999C53.62 0.409999 53.69 0.329999 53.74 0.319999C54.41 0.239999 56 0.409999 56.77 0.429999C57.18 0.449999 57.55 0.409999 58.01 0.439999C59.76 0.559999 61.67 0.589999 63.49 0.699999C63.66 0.699999 64.88 0.789999 64.94 0.819999L65.03 0.759999ZM51.65 1.42C51.52 1.38 51.39 1.36 51.24 1.36C51.37 1.5 51.16 1.48 51.17 1.53C51.21 1.74 51.64 1.53 51.7 1.53C51.79 1.53 51.98 1.53 52.07 1.55C52.12 1.55 52.12 1.65 52.29 1.62C52.47 1.41 52.29 1.37 51.91 1.41C51.85 1.41 51.86 1.47 51.83 1.47C51.66 1.49 51.69 1.42 51.66 1.41L51.65 1.42ZM48.37 1.39L47.82 1.3L47.78 1.43L47.5 1.35C47.29 1.43 48.31 1.54 48.4 1.45L48.55 1.62C48.26 1.59 48.1 1.71 47.77 1.68L47.67 1.58L47.51 1.64C47.4 1.47 47.36 1.63 47.31 1.64C47.05 1.66 46.98 1.62 47.04 1.49C47.06 1.45 47.19 1.49 47.17 1.44L45.8 1.38C45.84 1.45 46.07 1.41 46.22 1.44C46.22 1.44 46.3 1.5 46.35 1.51L46.28 1.62L44.67 1.55V1.68C44.45 1.47 44.21 1.61 43.92 1.5H44.17L44.11 1.33L43.98 1.39C43.93 1.2 43.6 1.42 43.43 1.36C43.25 1.29 43.53 1.29 43.08 1.29C43.01 1.29 42.92 1.26 42.89 1.26C42.8 1.26 42.84 1.36 42.74 1.34L42.71 1.24H42.47L42.43 1.32H42.22L42.19 1.22L41.88 1.2L42 1.3H41.23L41.16 1.36L41.04 1.16L40.83 1.19L40.81 1.34C40.81 1.34 40.19 1.32 40.11 1.31C40.06 1.3 40.07 1.25 40.02 1.24C39.95 1.23 39.23 1.17 39.17 1.17L38.99 1.38L38.75 1.31C38.72 1.39 38.88 1.41 38.99 1.42V1.51L37.91 1.49L37.84 1.55C37.81 1.41 37.48 1.53 37.38 1.43C37.56 1.37 37.95 1.32 38.03 1.46H38.16L38.26 1.41L38.32 1.48C38.32 1.48 38.41 1.41 38.38 1.36C38.38 1.35 38.06 1.21 38.04 1.21C37.71 1.16 36.96 1.21 36.7 1.15C36.62 1.13 36.7 1.07 36.6 1.08L36.46 1.29L36.16 1.31L36.11 1.16H35.86L35.91 1.25C35.87 1.25 35.75 1.36 35.73 1.38C35.68 1.44 35.67 1.5 35.59 1.56L35.71 1.68H35.46L35.41 1.49C35.61 1.5 35.5 1.3 35.47 1.29C35.32 1.23 35.31 1.33 35.22 1.34L35.12 1.21L33.98 1.19V1.29L34.1 1.23L34.15 1.41L34.68 1.45L34.75 1.52C34.9 1.45 35.42 1.4 35.34 1.58C34.82 1.59 34.2 1.49 33.7 1.54C33.62 1.54 33.68 1.6 33.62 1.6L33.56 1.53L33.28 1.58L33.4 1.62C33.35 1.71 33.31 1.7 33.15 1.72C33.24 1.8 33.87 1.75 33.95 1.73C34 1.72 34 1.63 34.12 1.65L34.25 1.79C34.55 1.82 34.99 1.75 35.11 1.92H35.2C35.33 1.81 35.53 1.7 35.83 1.76L35.86 1.85C36.14 1.88 36.19 1.78 36.21 1.77C36.36 1.73 36.32 1.96 36.55 1.77C36.78 1.77 36.89 1.86 36.98 1.88C37.26 1.94 37.6 1.93 37.89 1.95L37.77 1.85C38.14 1.89 38.62 1.85 38.97 1.9C39.02 1.9 38.98 1.96 39.1 1.97C39.22 1.98 39.35 1.97 39.47 1.98L39.54 1.92C39.74 2.12 40.24 1.96 40.56 2.06V1.96L40.74 1.98L40.78 2.04C40.92 1.88 41.05 2.04 41.11 2.05C41.27 2.09 41.42 2.01 41.46 2.2C41.64 2.04 42.05 2.1 42.37 2.13C42.46 2.13 42.55 2.19 42.63 2.19C42.77 2.19 42.88 2.08 42.9 2.08C43.09 2.07 43.02 2.15 43.16 2.17C43.28 2.19 43.75 2.2 43.87 2.18C44.36 2.12 45.08 2.11 45.59 2.07C46.37 2.01 47.23 2.06 48.05 2.01C48.1 2.01 48.1 1.96 48.14 1.95C48.54 1.92 49.04 2 49.35 1.99C49.42 1.99 49.49 1.91 49.77 1.9C50.05 1.89 50.65 1.99 50.72 1.84H50.84C50.96 2.05 51.05 1.87 51.1 1.86C51.17 1.84 51.28 1.87 51.35 1.86C51.39 1.86 51.45 1.76 51.65 1.81V1.71C51.43 1.75 51.17 1.64 51.06 1.78L50.93 1.71L50.56 1.76C50.45 1.76 50.47 1.7 50.39 1.67C50.02 1.58 49.99 1.75 49.76 1.74C49.45 1.73 49.37 1.62 49.11 1.6C48.98 1.6 48.89 1.6 48.76 1.6C48.7 1.59 48.51 1.24 48.36 1.3V1.36L48.37 1.39ZM49.61 1.54C49.65 1.45 49.53 1.4 49.37 1.38C49.3 1.38 48.82 1.35 48.81 1.38C48.81 1.6 49.33 1.46 49.61 1.53V1.54ZM45.68 1.28C45.68 1.28 45.51 1.22 45.45 1.24L45.39 1.32L45.51 1.36L44.64 1.32C44.63 1.66 44.91 1.46 45.29 1.45C45.44 1.45 45.6 1.46 45.75 1.47C45.77 1.47 45.72 1.31 45.68 1.28ZM52.41 1.7L51.92 1.66C51.78 1.71 51.83 1.79 51.85 1.87C51.99 1.8 52.26 1.92 52.28 1.92C52.35 1.9 52.48 1.75 52.42 1.71L52.41 1.7ZM61.12 2.15C61.12 2.15 61.02 2.17 60.96 2.17C60.67 2.17 60.2 2.1 59.93 2.11C59.79 2.11 59.83 2.19 59.78 2.18C59.67 2.02 59.6 2.18 59.41 2.17C59.29 2.17 59.24 2.17 59.26 2.1H59.2C59.23 2.18 59.1 2.14 59.01 2.17L59.23 2.2L59.26 2.29C59.36 2.31 59.29 2.24 59.37 2.23C59.52 2.21 59.78 2.22 59.95 2.23C59.95 2.29 59.77 2.25 59.65 2.26C59.64 2.26 59.45 2.34 59.5 2.37L60.06 2.39L60.01 2.23L60.32 2.28L60.29 2.38C60.51 2.44 60.65 2.3 60.67 2.3C60.86 2.29 60.81 2.36 60.86 2.37C61.24 2.43 61.23 2.33 61.39 2.32C61.55 2.31 62.37 2.38 62.44 2.35C62.44 2.29 62.26 2.21 62.16 2.22C62.07 2.22 62.11 2.32 62 2.3L61.97 2.2C61.79 2.2 61.52 2.16 61.36 2.18C61.24 2.2 61.31 2.3 61.13 2.26V2.16L61.12 2.15ZM58.5 2.16L57.88 2.13V2.23H58.06L57.99 2.35L58.8 2.39C58.88 2.25 58.66 2.31 58.53 2.25C58.46 2.22 58.51 2.16 58.5 2.15V2.16ZM55.24 2.19C55.18 2.17 55.13 2.17 55.07 2.17V2.33C55.5 2.33 55.78 2.48 56.23 2.43C56.39 2.41 56.46 2.4 56.43 2.3C56.27 2.35 56.17 2.3 56.02 2.29C55.65 2.26 55.9 2.28 55.74 2.22C55.52 2.14 55.45 2.29 55.41 2.29C55.33 2.29 55.25 2.2 55.24 2.2V2.19ZM30.93 1.26H30.62C30.55 1.33 30.73 1.31 30.74 1.33C30.8 1.47 30.54 1.35 30.54 1.47H30.42V1.4L30.32 1.46H29.74L30.14 1.48C30.18 1.59 30.23 1.59 30.44 1.62C30.58 1.45 30.99 1.57 31.05 1.43H31.11C31.05 1.53 31.65 1.56 31.61 1.46H31.7C31.75 1.64 32.16 1.41 32.11 1.38L30.99 1.27L30.92 1.4V1.27L30.93 1.26ZM54.32 2.3L53.63 2.32V2.43C53.5 2.43 53.4 2.39 53.44 2.49C53.73 2.56 53.82 2.47 54.03 2.45L54.18 2.52C54.16 2.41 54.45 2.47 54.58 2.44L54.75 2.32C54.59 2.32 54.45 2.28 54.41 2.37H54.25L54.32 2.3ZM29.49 1.26L29.02 1.23L28.74 1.32C28.94 1.34 29.14 1.33 29.34 1.32C29.44 1.32 29.52 1.36 29.49 1.26ZM52.76 2.29H52.64V2.44L52.46 2.37L52.33 2.46L53.08 2.49C53.17 2.32 52.79 2.45 52.78 2.28L52.76 2.29ZM28.01 1.34C28.01 1.34 28.03 1.28 27.93 1.28C27.82 1.38 27.97 1.37 28.02 1.48L28.61 1.5L28.55 1.37C28.33 1.39 28.22 1.41 28.01 1.33V1.34ZM29.55 1.36H29.37L29.36 1.44H29.18V1.52L29.55 1.58L29.49 1.5L29.61 1.47L29.56 1.35L29.55 1.36ZM32.92 1.56C32.92 1.56 32.95 1.49 32.85 1.5L32.81 1.59L32.56 1.55L32.5 1.61L32.22 1.57C32.19 1.64 32.47 1.57 32.4 1.66C32.34 1.73 32.07 1.7 32.14 1.83L32.33 1.74H32.45L32.51 1.81L32.58 1.62L32.64 1.69C32.8 1.73 32.74 1.64 32.81 1.63C32.91 1.63 33.04 1.65 33.14 1.65C33.19 1.54 33 1.61 32.91 1.57L32.92 1.56ZM26.24 1.44C26.3 1.38 26.36 1.33 26.21 1.28L25.31 1.37C25.37 1.46 25.68 1.36 25.81 1.39L25.56 1.51L26.02 1.53L26.09 1.47L26.18 1.54L26.24 1.48C26.22 1.61 26.77 1.59 26.94 1.57C27 1.57 27 1.51 27.02 1.51C27.23 1.49 27.11 1.59 27.27 1.59C27.53 1.45 27.02 1.43 26.79 1.44C26.74 1.44 26.75 1.49 26.71 1.49C26.66 1.49 26.26 1.45 26.24 1.44ZM31.54 1.54C31.35 1.54 30.99 1.48 30.97 1.61L30.76 1.54C30.52 1.74 30.93 1.63 31.14 1.63C31.26 1.63 31.4 1.68 31.53 1.67V1.54H31.54ZM37.66 2.21C37.61 2.19 37.39 2.15 37.37 2.15C37.37 2.38 37.16 2.18 37.14 2.17C36.82 2.11 36.87 2.23 36.76 2.25C36.69 2.25 36.54 2.19 36.49 2.25C36.36 2.42 37.08 2.29 37.07 2.45H37.19L37.29 2.39L37.35 2.46L37.38 2.37C37.55 2.37 37.84 2.4 37.99 2.39C38.03 2.39 38.07 2.29 38.43 2.35C38.47 2.35 38.47 2.46 38.74 2.43C38.77 2.43 39.11 2.27 39.04 2.22L38.82 2.31L38.7 2.24C38.53 2.21 38.57 2.28 38.5 2.29C38.47 2.29 37.81 2.29 37.77 2.29C37.7 2.28 37.69 2.22 37.65 2.2L37.66 2.21ZM29.03 1.91H28.78V2.03C28.5 1.97 28.48 2.07 28.39 2.09C28.33 2.1 27.76 2.11 27.9 2.19L28.52 2.25L28.59 2.16C28.54 2.29 28.66 2.26 28.86 2.27C28.92 2.19 28.91 2.17 29.09 2.15C29.01 2.31 29.36 2.24 29.49 2.28C29.56 2.3 29.55 2.35 29.63 2.37C29.74 2.4 30.24 2.44 30.21 2.33L30.33 2.4C30.38 2.32 30.53 2.34 30.42 2.23L30.51 2.19L30.91 2.21C30.82 2.31 31 2.34 31.01 2.35C31.06 2.41 30.96 2.48 31.12 2.47L31.39 2.29L32.03 2.32L31.6 2.27C31.67 2.21 31.8 2.16 31.94 2.19L32.07 2.26C32.07 2.26 32.08 2.15 32.38 2.21L32.45 2.28L32.52 2.22L33.16 2.25V2.15L32.02 2.1L31.95 2.16L31.86 2.09C31.94 2.19 31.36 2.14 31.31 2.12C31.29 2.11 31.31 2.07 31.3 2.07C31.18 2.01 31.18 2.12 31.13 2.13C30.96 2.15 30.6 2.13 30.43 2.1L30.36 2.19C30.36 2.08 30.19 2.11 30.07 2.07C30.04 2.07 30.05 2.02 30.02 2.01C29.85 1.98 29.9 2.11 29.59 2.06C29.53 2.05 29.59 1.96 29.43 1.99L29.39 2.08L29.24 1.98L28.99 2.03L29.06 1.94L29.03 1.91ZM35.5 2.23C35.14 2.17 34.75 2.16 34.39 2.18C34.34 2.22 34.46 2.37 34.28 2.33C34.21 2.32 34.38 2.14 34.13 2.16L34.18 2.39C34.44 2.44 34.4 2.28 34.47 2.27L34.63 2.29L34.5 2.36H34.75L34.79 2.25L34.94 2.44L34.81 2.48C34.9 2.59 35.13 2.42 35.21 2.38C35.28 2.35 35.52 2.34 35.5 2.22V2.23ZM34.07 2.17C33.87 2.17 33.68 2.15 33.48 2.14C33.38 2.14 33.24 2.1 33.26 2.18L33.57 2.22L33.68 2.34L33.72 2.21L34.06 2.26V2.16L34.07 2.17ZM23.33 1.93C23.1 1.83 23.19 1.94 23.05 1.97C22.98 1.98 22.68 1.97 22.66 1.99L22.71 2.18C22.85 2.16 22.8 2.06 23.02 2.1L22.95 2.19L23.5 2.21L23.59 2C23.38 2.02 23.39 1.97 23.32 1.94L23.33 1.93ZM24.66 1.94H24.41V2.03C24.25 2.06 24.31 1.97 24.25 1.96C24.14 1.94 23.98 1.96 23.86 1.94L23.79 2.16H24.16L24.15 2.4L24.46 2.42V2.51H24.65C24.59 2.42 24.48 2.24 24.78 2.29L24.6 2.19H25.34L25.35 2.06C25.49 2.07 25.45 2.18 25.47 2.19C25.49 2.19 25.95 2.2 25.96 2.16L25.91 1.98C25.71 1.97 25.52 1.95 25.44 2.05C25.35 1.92 25.08 1.92 25.22 2.07H25L24.97 1.96C24.73 1.92 24.85 2.04 24.66 2.01V1.91V1.94ZM27.34 2.16L27.19 2.09L27.15 2.25L27.25 2.19C27.29 2.31 27.54 2.26 27.71 2.28V2.12L27.48 2.1L27.34 2.17V2.16ZM22.22 1.97C22.13 1.93 21.83 1.91 21.86 2.01H21.8L21.68 1.94L21.65 2.03L21.49 2.01L21.61 2.13C21.76 2.17 21.73 2.08 21.77 2.07C21.99 2.05 21.85 2.16 22.05 2.15L22.18 2.06L22.24 2.16C22.27 2.11 22.33 2.02 22.24 1.98L22.22 1.97ZM20.11 2C19.91 1.98 19.59 1.94 19.39 1.96C19.28 1.97 19.29 2.02 19.22 2.03C19.02 2.06 18.87 2.03 18.67 2V2.13C18.56 2.13 18.64 2.08 18.56 2.06C18.51 2.05 18.19 2 18.17 2.01C18.1 2.11 18.24 2.13 18.29 2.21L18.57 2.16L18.66 2.23C18.72 2.06 19.16 2.23 19.26 2.07L19.44 2.17C19.58 2.01 19.81 2.09 19.94 2.22L20.11 2ZM20.48 2.01C20.48 2.01 20.39 1.99 20.36 2.03C20.31 2.09 20.45 2.1 20.21 2.1C20.04 2.1 20.12 2.12 20.11 2.19L20.24 2.13V2.29C20.47 2.27 20.89 2.41 20.95 2.26C21.01 2.11 20.65 2.13 20.55 2.1C20.49 2.08 20.5 2.02 20.49 2.02L20.48 2.01ZM17.43 1.97H17.12L17.18 2.05C17.07 2.06 16.89 2.05 16.93 2.14L17.3 2.18L17.43 1.97ZM16.61 1.98C16.4 1.9 16.24 2.05 16.24 2.15C16.48 2.13 16.66 2.15 16.87 2.08L16.75 1.98L16.69 2.04C16.59 2.04 16.65 1.99 16.62 1.98H16.61ZM16.06 2.04C15.87 1.99 15.71 2.01 15.5 2.02V2.15C15.71 2.13 16.03 2.21 16.06 2.05V2.04ZM29.75 2.62C29.55 2.62 29.08 2.54 29.06 2.69C29.2 2.69 29.33 2.73 29.31 2.64H29.37C29.37 2.77 29.82 2.78 29.75 2.63V2.62ZM22.65 2.34H22.47L22.36 2.52C22.27 2.55 21.85 2.52 21.9 2.43H21.78C21.9 2.58 21.34 2.48 21.41 2.58C21.49 2.7 21.77 2.79 21.84 2.65H21.93C21.93 2.65 21.92 2.75 22.24 2.73L22.28 2.64L22.71 2.69V2.59L22.89 2.61L22.93 2.67L22.96 2.61L23.08 2.68L23.21 2.59L23.27 2.69L23.4 2.6L23.43 2.7C23.48 2.59 23.65 2.65 23.84 2.65C23.88 2.52 23.47 2.39 23.41 2.57H23.35C23.32 2.4 23.09 2.55 23.01 2.56C22.79 2.59 22.63 2.57 22.54 2.45H22.73L22.67 2.35L22.65 2.34ZM29 2.62C28.81 2.62 28.59 2.59 28.41 2.59C28.32 2.59 28.23 2.59 28.32 2.65C28.5 2.69 29 2.76 29.01 2.62H29ZM19.72 2.52C19.33 2.45 19.25 2.63 18.91 2.58V2.71C19.29 2.68 19.87 2.91 20.03 2.66L19.72 2.68V2.52ZM15.59 2.69C15.59 2.69 15.64 2.45 15.48 2.43L15.41 2.59L15.29 2.49C15.37 2.57 15.17 2.89 15.3 2.91C15.46 2.94 15.34 2.84 15.44 2.82C15.59 2.78 15.8 2.82 15.96 2.84V2.75C16.16 2.77 16.36 2.72 16.52 2.72C16.79 2.72 17.1 2.81 17.36 2.81C17.48 2.81 17.45 2.75 17.48 2.75C17.68 2.76 18.09 2.83 18.17 2.71L18.26 2.78C18.29 2.69 18.51 2.74 18.52 2.6C18.29 2.64 18.08 2.53 17.99 2.67L17.96 2.57H17.75C17.6 2.58 17.73 2.73 17.46 2.68C17.47 2.65 17.7 2.63 17.59 2.56C17.48 2.49 17.42 2.69 17.28 2.64C17.28 2.55 17.28 2.51 17.08 2.51C17.03 2.51 16.97 2.54 16.91 2.53L16.97 2.61H16.84L16.75 2.49L16.59 2.61C16.47 2.58 16.56 2.49 16.35 2.56L16.32 2.6C16.05 2.36 15.96 2.75 15.6 2.7L15.59 2.69ZM14.78 2.47C14.68 2.4 14.27 2.38 14.29 2.5H14.17L14.14 2.43L13.98 2.49L13.95 2.42L13.82 2.48C13.71 2.31 13.7 2.5 13.48 2.46L13.54 2.56H13.42L13.67 2.63H13.36V2.49L13.23 2.55V2.49H13.14L13.1 2.55H13.01L12.98 2.48L12.76 2.53L12.73 2.46C12.64 2.45 12.66 2.52 12.56 2.55C12.48 2.58 12.36 2.55 12.36 2.55C12.29 2.6 12.36 2.69 12.1 2.68L12.16 2.8C12.55 2.82 12.76 2.76 13.1 2.71L13.04 2.58H13.29L13.16 2.71C13.27 2.74 13.46 2.72 13.55 2.76C13.66 2.8 13.74 3 13.85 2.74L14.03 2.84V2.71C14.22 2.79 14.39 2.71 14.56 2.73C14.67 2.74 15.07 2.89 15.09 2.88C15.22 2.75 14.95 2.67 14.85 2.59C14.8 2.55 14.82 2.49 14.78 2.46V2.47ZM10.71 2.43C10.71 2.43 10.72 2.37 10.63 2.38C10.65 2.47 10.51 2.44 10.38 2.43C10.49 2.55 10.24 2.59 10.16 2.65C10.08 2.71 10.18 2.81 9.96003 2.76C9.94003 2.76 9.88003 2.64 9.62003 2.68C9.74003 2.84 9.54003 2.78 9.55003 2.9L10.13 2.93L10.17 2.8L10.29 2.82L10.23 2.9H10.48L10.36 2.82L10.5 2.49L10.93 2.65C10.89 2.8 10.75 2.56 10.62 2.62C10.51 2.67 10.89 2.84 10.95 2.86C11.09 2.82 10.98 2.71 11.17 2.74C11.08 2.92 11.58 2.81 11.6 2.95H11.72C11.98 2.81 11.71 2.92 11.67 2.76C11.82 2.77 12 2.78 11.99 2.68L11.68 2.6L11.55 2.72L11.52 2.62L11.18 2.64V2.51C10.98 2.51 10.86 2.48 10.71 2.41V2.43ZM8.45003 2.47C8.45003 2.47 8.41003 2.41 8.38003 2.39L8.29003 2.37L8.03003 2.52L7.91003 2.45L7.26003 2.42L7.19003 2.54L7.07003 2.47L6.94003 2.56C7.43003 2.81 8.12003 2.64 8.74003 2.74C8.70003 2.5 9.19003 2.78 9.05003 2.85L8.80003 2.87L9.38003 2.9C9.60003 2.8 9.47003 2.68 9.49003 2.6C9.49003 2.57 9.77003 2.57 9.69003 2.46C9.34003 2.4 9.21003 2.56 8.84003 2.55C8.81003 2.55 8.82003 2.49 8.78003 2.49C8.68003 2.47 8.54003 2.49 8.46003 2.47H8.45003ZM7.49003 2.81C7.30003 2.81 7.10003 2.73 6.93003 2.81C7.00003 2.94 7.45003 2.96 7.49003 2.81Z" fill="#CFFF55"/>
<path id="Vector_2" d="M68.1299 2.75C68.1599 2.84 68.0899 2.8 67.9799 2.81C67.6999 2.84 67.4699 2.79 67.1899 2.81C67.3699 2.65 67.7999 2.76 68.1299 2.76V2.75Z" fill="#CFFF55"/>
<path id="Vector_3" d="M61.03 2.76C61.12 2.81 61.02 2.82 60.93 2.82C60.7 2.82 60.44 2.82 60.21 2.82L60.32 2.73L61.02 2.76H61.03Z" fill="#CFFF55"/>
<path id="Vector_4" d="M37.0801 1.25C37.0801 1.25 37.0801 1.33 37.2501 1.31C37.2701 1.31 37.3401 1.2 37.5901 1.26C37.5401 1.47 36.9901 1.23 37.0801 1.43H37.2701V1.53C37.0501 1.56 36.6201 1.48 36.4401 1.53C36.2701 1.58 36.4201 1.7 36.0201 1.64L36.2701 1.56L35.8401 1.51C35.8901 1.3 36.8901 1.51 37.0301 1.43V1.34C36.9201 1.34 36.7601 1.32 36.7901 1.23C36.8901 1.23 37.0001 1.23 37.0801 1.25Z" fill="#CFFF55"/>
<path id="Vector_5" d="M43.5299 1.45C43.5899 1.48 43.6799 1.49 43.6899 1.53C43.5099 1.51 43.2699 1.45 43.2499 1.57H43.1299L43.0699 1.5C42.9899 1.65 42.5299 1.6 42.6399 1.42L43.4099 1.45L43.4499 1.39C43.5399 1.39 43.4899 1.42 43.5299 1.44V1.45Z" fill="#CFFF55"/>
<path id="Vector_6" d="M41.3199 1.44L41.3499 1.5H41.4799C41.5299 1.4 41.7099 1.46 41.8899 1.46V1.65C41.6299 1.65 41.8899 1.51 41.5699 1.54V1.64C41.3999 1.66 41.48 1.6 41.4 1.57C41.28 1.53 41.07 1.59 41.2 1.43H41.3199V1.44Z" fill="#CFFF55"/>
</g>
</svg>
