<svg width="16" height="16" viewBox="0 0 16 16" fill="none" xmlns="http://www.w3.org/2000/svg">
<g id="meeting-co-working-2--Streamline-Freehand" clip-path="url(#clip0_35_1520)">
<g id="Group">
<path id="Vector" fill-rule="evenodd" clip-rule="evenodd" d="M12.2732 12.06C12.3244 12.06 12.3736 12.0397 12.4099 12.0034C12.4461 11.9672 12.4665 11.918 12.4665 11.8667C12.4665 11.8154 12.4461 11.7663 12.4099 11.73C12.3736 11.6937 12.3244 11.6734 12.2732 11.6734C10.9398 11.54 10.3332 10.66 10.4065 9.7867C10.4555 9.30246 10.6924 8.85672 11.0663 8.54513C11.4402 8.23354 11.9213 8.08093 12.4065 8.12004C12.8481 8.11107 13.2753 8.27704 13.595 8.58175C13.9147 8.88647 14.1009 9.30522 14.1132 9.7467C14.2013 10.1975 14.1069 10.6649 13.8506 11.0462C13.5944 11.4275 13.1972 11.6914 12.7465 11.78C12.6881 11.7871 12.635 11.8171 12.5987 11.8633C12.5625 11.9096 12.5461 11.9684 12.5532 12.0267C12.5602 12.0851 12.5902 12.1382 12.6365 12.1745C12.6827 12.2107 12.7415 12.2271 12.7998 12.22C13.0737 12.1979 13.3408 12.1232 13.5865 12C13.7735 12.2096 13.945 12.4324 14.0998 12.6667C14.1932 12.8067 14.2732 12.94 14.3532 13.08C14.441 13.22 14.5212 13.3646 14.5932 13.5134C14.7746 13.8668 14.9262 14.2348 15.0465 14.6134C15.0563 14.6708 15.0884 14.722 15.1359 14.7558C15.1834 14.7895 15.2424 14.803 15.2998 14.7934C15.3578 14.782 15.409 14.7485 15.4427 14.6999C15.4763 14.6514 15.4896 14.5916 15.4798 14.5334C15.4447 14.0951 15.3643 13.6617 15.2398 13.24C15.1763 13.0574 15.096 12.8811 14.9998 12.7134C14.9089 12.5403 14.7969 12.3791 14.6665 12.2334C14.466 12.03 14.2423 11.8509 13.9998 11.7C14.2572 11.4385 14.4548 11.1242 14.5791 10.779C14.7034 10.4337 14.7514 10.0656 14.7198 9.70004C14.719 9.39393 14.6577 9.091 14.5395 8.80862C14.4214 8.52623 14.2487 8.26994 14.0313 8.05442C13.8139 7.8389 13.5561 7.66839 13.2728 7.55267C12.9894 7.43695 12.6859 7.37828 12.3798 7.38004C11.7209 7.35639 11.079 7.59264 10.5927 8.03786C10.1063 8.48307 9.81438 9.10158 9.77983 9.76004C9.77316 10.8734 10.5532 12 12.2732 12.06Z" fill="white"/>
<path id="Vector_2" fill-rule="evenodd" clip-rule="evenodd" d="M0.699821 7.74653C0.728346 7.75332 0.757966 7.75416 0.78683 7.749C0.815694 7.74383 0.843184 7.73277 0.867582 7.7165C0.89198 7.70024 0.912763 7.67912 0.928634 7.65446C0.944504 7.6298 0.955121 7.60214 0.959821 7.57319C1.08015 7.19244 1.23178 6.82228 1.41315 6.46653C1.48649 6.31986 1.56649 6.17986 1.64649 6.03986C1.72649 5.89986 1.81315 5.76653 1.89982 5.62653C2.05695 5.39213 2.23073 5.16933 2.41982 4.95986C2.66092 5.08371 2.92335 5.16063 3.19315 5.18653C3.22205 5.19003 3.25134 5.18781 3.27937 5.17999C3.30741 5.17217 3.33362 5.1589 3.35653 5.14095C3.37943 5.12299 3.39858 5.10071 3.41287 5.07536C3.42716 5.05 3.43632 5.02209 3.43982 4.99319C3.44332 4.9643 3.4411 4.93501 3.43328 4.90697C3.42546 4.87894 3.41219 4.85273 3.39424 4.82982C3.37629 4.80692 3.354 4.78777 3.32865 4.77348C3.3033 4.75919 3.27538 4.75003 3.24649 4.74653C3.02262 4.70268 2.80961 4.61507 2.61967 4.48872C2.42973 4.36237 2.26661 4.19978 2.13964 4.01026C2.01267 3.82073 1.92436 3.60801 1.87978 3.38429C1.83519 3.16057 1.83521 2.93024 1.87982 2.70653C1.89205 2.26445 2.0781 1.84502 2.3976 1.53924C2.71711 1.23347 3.1443 1.06601 3.58649 1.07319C4.07192 1.03764 4.55213 1.19242 4.92543 1.50475C5.29874 1.81708 5.53582 2.26244 5.58649 2.74653C5.65315 3.61986 5.06649 4.49986 3.71982 4.63319C3.66795 4.63663 3.61945 4.66012 3.58461 4.6987C3.54976 4.73728 3.53131 4.78791 3.53315 4.83986C3.53485 4.86527 3.54154 4.8901 3.55286 4.91291C3.56417 4.93573 3.57988 4.95608 3.59908 4.97281C3.61829 4.98953 3.64061 5.0023 3.66476 5.01038C3.68891 5.01845 3.71442 5.02167 3.73982 5.01986C5.46649 4.97986 6.24649 3.83319 6.21982 2.71319C6.18358 2.05175 5.88835 1.43118 5.39802 0.985764C4.90769 0.540348 4.26169 0.305915 3.59982 0.333194C3.29284 0.332317 2.98871 0.392024 2.70485 0.508892C2.42098 0.62576 2.16297 0.797493 1.94559 1.01425C1.72822 1.23101 1.55575 1.48853 1.43807 1.77206C1.32039 2.05559 1.25982 2.35955 1.25982 2.66653C1.22946 3.03372 1.27998 3.40311 1.40784 3.74866C1.53569 4.09421 1.73777 4.40753 1.99982 4.66653C1.75611 4.81565 1.53213 4.99483 1.33315 5.19986C1.20276 5.34707 1.08876 5.50801 0.993154 5.67986C0.897931 5.84716 0.81976 6.0236 0.759821 6.20653C0.628987 6.62664 0.548425 7.06078 0.519821 7.49986C0.515085 7.52792 0.51601 7.55664 0.522542 7.58433C0.529073 7.61203 0.541078 7.63813 0.55785 7.66112C0.574623 7.6841 0.595824 7.7035 0.620206 7.71817C0.644587 7.73284 0.671657 7.74248 0.699821 7.74653Z" fill="white"/>
<path id="Vector_3" fill-rule="evenodd" clip-rule="evenodd" d="M15.7866 15.0801C14.6666 15.0068 13.58 14.9468 12.4933 14.9201H11.8266V14.7134C11.7293 14.0369 11.5823 13.3684 11.3866 12.7134C11.3343 12.5638 11.265 12.4206 11.18 12.2868C11.1167 12.1963 11.0319 12.123 10.9333 12.0734C10.5705 11.9592 10.1935 11.8964 9.81331 11.8868C9.00923 11.8248 8.20105 11.8404 7.39998 11.9334C7.1204 11.9599 6.8498 12.0463 6.60664 12.1868C6.5323 12.2345 6.47327 12.3026 6.43662 12.383C6.39997 12.4634 6.38725 12.5527 6.39998 12.6401C6.51331 13.3068 6.77331 13.9068 6.92664 14.5268C6.98102 14.7323 7.01891 14.9419 7.03998 15.1534L6.37331 15.2001C6.34823 15.2001 6.32339 15.2051 6.3003 15.2149C6.27721 15.2247 6.25633 15.2391 6.2389 15.2571C6.22148 15.2752 6.20787 15.2965 6.19889 15.3199C6.18991 15.3434 6.18575 15.3684 6.18664 15.3934C6.18664 15.4447 6.20701 15.4939 6.24327 15.5301C6.27953 15.5664 6.3287 15.5868 6.37998 15.5868C7.65331 15.6201 8.89331 15.6801 10.1333 15.6801C10.8866 15.6801 11.6333 15.6801 12.38 15.6401C13.4866 15.6068 14.6066 15.5468 15.7466 15.5334C15.7766 15.5381 15.8072 15.5366 15.8365 15.5289C15.8658 15.5212 15.8932 15.5075 15.917 15.4887C15.9408 15.47 15.9604 15.4465 15.9747 15.4198C15.989 15.393 15.9976 15.3636 16 15.3334C16.0047 15.3024 16.0028 15.2708 15.9943 15.2406C15.9858 15.2104 15.971 15.1823 15.9508 15.1583C15.9306 15.1344 15.9055 15.115 15.8772 15.1015C15.8489 15.088 15.818 15.0807 15.7866 15.0801ZM6.97998 12.7134H7.01998C7.05998 12.7134 6.99998 12.7468 6.97998 12.7134ZM9.64664 14.9534C8.91331 14.9934 8.18664 15.0468 7.44664 15.1068C7.44096 14.8721 7.41869 14.6382 7.37998 14.4068C7.27331 13.8401 7.09331 13.2801 7.01331 12.6868H7.07998C7.79286 12.5839 8.51446 12.5549 9.23331 12.6001C9.71211 12.5829 10.1915 12.6052 10.6666 12.6668L10.8466 12.9668C11.1027 13.5976 11.3056 14.2488 11.4533 14.9134H11.1133C10.62 14.9201 10.1466 14.9334 9.67998 14.9534H9.64664Z" fill="white"/>
<path id="Vector_4" fill-rule="evenodd" clip-rule="evenodd" d="M9.78659 8.34C9.78748 8.3146 9.78336 8.28929 9.77446 8.26549C9.76556 8.24169 9.75205 8.21988 9.73472 8.2013C9.71738 8.18273 9.69655 8.16776 9.67342 8.15724C9.65029 8.14672 9.62532 8.14086 9.59993 8.14L8.97326 8.1C8.99081 7.87527 9.02648 7.65232 9.07993 7.43333C9.23993 6.82 9.49993 6.20666 9.61326 5.55333C9.62619 5.46517 9.61285 5.37514 9.57491 5.29452C9.53697 5.21389 9.4761 5.14623 9.39993 5.1C9.16011 4.95742 8.89121 4.87082 8.61326 4.84666C7.81111 4.76481 7.00294 4.76034 6.19993 4.83333C5.82048 4.8457 5.44414 4.90619 5.07993 5.01333C4.98132 5.06592 4.89674 5.14136 4.83326 5.23333C4.74896 5.36857 4.67753 5.51141 4.61993 5.66C4.42779 6.31584 4.28078 6.98407 4.17993 7.66V7.86666H3.51326C2.42659 7.86666 1.33993 7.95333 0.219925 8.02C0.16215 8.0234 0.107866 8.04878 0.0681998 8.09092C0.028534 8.13307 0.00649192 8.18879 0.00659214 8.24666C0.00832679 8.30562 0.0329713 8.36157 0.075293 8.40265C0.117615 8.44373 0.174281 8.46669 0.233259 8.46666C1.37326 8.46666 2.49326 8.53333 3.59993 8.56666C4.34659 8.56666 5.09326 8.61333 5.84659 8.61333C7.08659 8.61333 8.32659 8.55333 9.59993 8.52C9.64781 8.51846 9.69342 8.49919 9.72791 8.46593C9.7624 8.43268 9.78331 8.3878 9.78659 8.34ZM9.02659 5.67333C9.02659 5.70666 9.02659 5.67333 8.97993 5.67333C8.93326 5.67333 9.03326 5.66 9.02659 5.67333ZM4.91326 7.87333H4.57993C4.72879 7.20683 4.93169 6.55356 5.18659 5.92L5.36659 5.62C5.80893 5.56615 6.25435 5.54165 6.69993 5.54666C7.42095 5.49789 8.14513 5.52694 8.85993 5.63333H8.91993C8.84659 6.22666 8.66659 6.79333 8.55993 7.35333C8.51761 7.58656 8.49531 7.82297 8.49326 8.06C7.75326 8 7.01993 7.94666 6.28659 7.90666C5.85326 7.89333 5.37993 7.88 4.91326 7.87333Z" fill="white"/>
</g>
</g>
<defs>
<clipPath id="clip0_35_1520">
<rect width="16" height="16" fill="white"/>
</clipPath>
</defs>
</svg>
