<svg width="144" height="43" viewBox="0 0 144 43" fill="none" xmlns="http://www.w3.org/2000/svg">
<path id="Vector" d="M139.423 1.90817C138.98 1.8326 139.152 2.64499 138.79 2.95672C139.378 3.51406 139.632 4.87434 139.822 5.70562C139.957 6.31964 140.193 7.16037 140.292 7.65158C140.374 8.04833 140.021 8.53954 140.365 9.08743L139.749 9.78647C140.745 10.4855 140.256 11.0239 140.356 12.1103C140.564 12.4692 142.465 12.063 142.953 12.2898C142.7 12.8377 143.542 13.3855 143.668 13.7634C143.84 14.2641 143.668 15.0009 143.732 15.4732C143.822 16.1628 143.777 16.3423 143.804 17.098C143.804 17.2869 144.039 17.5136 143.994 17.6931C143.94 17.9009 142.926 18.2599 143.216 19.0534L143.641 18.9967L143.994 19.9886C143.569 20.1397 142.953 19.6957 142.718 20.187L143.641 21.0655L143.026 21.9723L143.596 21.8684L143.424 22.2935L143.849 22.3218L143.587 22.8981L143.913 23.2759C143.578 23.7577 143.641 24.3434 143.533 24.8629C143.424 25.3352 142.99 25.5242 143.451 26.261L143.026 26.2326L143.27 26.8372L142.845 26.8089C143.161 27.8196 143.017 28.4809 141.994 28.8587C140.781 29.3216 140.319 29.0666 139.251 29.0382C138.754 29.0288 138.048 29.2744 137.559 29.1988C137.124 29.1327 136.681 28.8304 136.31 28.8115C135.957 28.7926 135.74 29.0382 135.468 29.0288C134.825 29.0099 133.024 28.5376 132.508 28.5848C131.223 28.7076 129.757 28.9438 128.481 28.6604C127.413 28.4242 127.458 28.4809 126.381 28.5753C124.561 28.7359 122.824 28.3675 121.022 28.292C120.977 28.292 120.633 28.8115 120.28 28.6793L120.172 28.2353C119.574 28.4809 118.886 28.4148 118.28 28.4903C118.081 28.5187 117.855 28.7454 117.746 28.7359C117.483 28.717 116.959 28.0275 116.533 27.9519C115.755 27.8196 115.049 28.4148 114.388 28.3297C114.044 28.2825 113.908 28.018 113.673 27.9519C113.601 27.933 112.261 27.8385 112.189 27.848C112.08 27.8574 111.953 27.9613 111.944 28.0841L112.352 28.2636C111.953 28.2636 111.483 28.3014 111.102 28.4242C110.451 28.632 109.627 29.4822 109.31 28.4809H109.102L108.722 29.0004C107.953 28.462 107.636 28.9154 106.993 29.0004C106.622 29.0477 106.179 28.821 105.799 28.821C105.093 28.821 104.242 28.9815 103.753 29.0949C103.065 29.246 102.232 29.1327 101.535 29.0949L101.59 29.3877C101.309 29.4066 101.246 29.1232 100.974 29.0571C100.603 28.9532 100.196 29.0571 99.7795 28.906C99.4808 28.7926 99.3994 27.9991 98.7929 29.0382L98.1865 28.6982C98.0507 29.161 97.8878 28.7832 97.571 28.906C97.1275 29.0855 97.218 29.775 96.2586 29.0666L95.9509 29.4161L97.0732 29.5011C97.1004 29.69 96.8017 29.7184 96.675 29.7278C96.1048 29.775 95.5255 29.6617 94.9553 29.6428L95.1182 29.3594L94.8376 29.3405L94.0954 29.9451C94.7018 30.9842 95.1634 30.1246 95.5707 30.1151C95.7699 30.1151 96.3944 30.5119 96.8198 30.4646C96.9193 30.4552 97.209 29.8034 97.8154 30.1435L97.7249 30.4268C98.4309 30.6536 99.2998 30.2474 99.8791 30.8803C100.214 30.2379 101.508 31.107 101.617 30.1246L102.024 30.5969C102.965 30.3513 103.934 30.8614 104.93 30.833L105.129 31.2581L104.586 31.6738C104.251 31.7304 103.545 31.1353 103.101 31.2959C102.875 31.3809 102.658 32.1839 102.585 31.3809L102.386 31.3526L102.124 31.7588C102.033 31.8155 101.653 31.551 101.4 31.5699C101.373 31.5699 101.11 32.1083 100.875 31.8344C100.712 31.6454 101.436 31.0692 101.001 30.9653C100.648 30.8803 100.476 31.3431 100.395 31.3526C99.7886 31.4093 99.7614 31.022 99.7252 31.0125C99.6347 31.0031 98.0417 31.2959 97.9602 31.3431C97.9331 31.362 98.1232 31.7966 97.7159 31.8438C96.8288 31.5604 96.141 32.0138 95.272 31.4282L95.4259 31.1542C94.8829 30.8614 94.204 30.9936 94.0501 31.6454H92.0951L91.9956 31.0503C91.5068 31.6549 90.4478 31.6454 89.7056 31.6265C89.4612 31.6265 89.2259 31.4659 89.0087 31.4565C87.2799 31.3904 88.3661 34.5927 88.3661 34.5927L88.5742 34.9044L88.6647 34.4888C89.9409 34.9611 89.769 33.6859 89.8504 33.6764C90.2396 33.6197 89.9319 34.3282 90.3482 34.5266C90.4659 34.5833 90.9366 34.5455 91.1176 34.6399L91.2443 33.7709C91.7512 33.752 91.1719 34.5171 91.2534 34.6494C91.6154 34.5171 91.9231 34.8005 91.9865 34.2621L92.6291 35.1123L92.1856 35.4429C92.4753 35.4901 92.6744 35.2728 92.964 35.2823C93.4075 35.2823 93.9144 35.7357 94.2402 35.3012L94.3669 35.6129L94.9191 35.4807L95.0639 35.8018L96.322 35.5846L96.4487 35.8963C96.684 35.4712 97.562 35.7357 97.381 36.1891L97.7611 36.2836L97.5258 35.5373C97.6887 35.5657 97.9421 35.4996 98.0598 35.6129C98.1322 35.679 97.9783 35.9246 98.2046 35.8774L98.449 35.4618C98.6934 36.1797 100.277 35.5279 100.612 35.7641C100.639 35.783 100.377 36.2364 100.848 36.3686C100.875 35.8207 101.318 36.0569 101.544 35.9435C101.635 35.8963 101.662 35.6696 101.735 35.6318C101.897 35.5373 102.35 35.9624 102.594 35.5468L101.762 35.1973L101.354 35.2351C101.373 34.725 101.87 34.725 102.232 34.7911L102.323 34.4227C102.567 34.6305 103.147 34.6021 103.273 34.6494C103.382 34.6872 103.337 34.9328 103.427 34.9517C103.744 35.0178 104.35 34.6116 104.586 35.3201C104.196 35.3579 104.043 35.4334 103.753 35.1123C103.282 36.3497 104.269 35.6035 104.604 35.6507C105.111 35.7168 106.396 36.6993 106.704 36.0663C106.912 36.2269 107.247 36.1891 107.174 36.5292L107.346 36.1041C107.989 36.4536 108.686 35.9813 109.455 36.038C109.618 36.0475 111.646 36.397 111.754 36.4442C111.872 36.4914 111.836 36.7937 112.026 36.8693C112.442 37.0393 113.139 36.7654 113.248 36.2458L112.741 36.5009L112.56 36.0475L115.157 36.0852L115.212 36.3875L114.922 36.5859C115.175 36.9165 115.673 37.2377 115.9 36.737L115.356 36.4064C115.863 36.5198 116.723 36.1986 117.14 36.2553C117.474 36.3025 117.601 36.8693 117.855 36.7087C117.945 36.123 118.832 36.7748 119.194 36.8409C119.701 36.9354 120.289 36.8693 120.814 36.9543L120.516 37.2188C121.068 37.1432 122.045 37.6344 122.281 37.0582C123.34 37.7856 124.625 37.455 125.829 37.7478C125.829 37.9745 125.458 37.9651 125.304 37.984C124.679 38.0595 124.046 37.9745 123.43 37.8706L123.53 38.4657C123.439 38.5602 122.416 38.4657 122.19 38.5035C121.873 38.5602 121.991 38.9569 121.267 38.598C121.375 38.9947 122.127 39.0042 122.453 38.9853C122.679 38.9758 122.932 38.2012 123.005 39.1648L122.48 39.5615L123.149 40.0527L122.389 40.1566L121.982 39.6749L122.018 40.1188C121.728 40.1283 121.538 39.8638 121.258 39.8355C121.013 39.8166 120.398 40.2605 120.498 39.7221L120.289 39.7032L120.108 39.9866L119.719 39.9583L119.583 39.6465C119.448 40.0905 119.185 39.911 118.796 39.8827L118.886 39.5993L118.479 39.4198C118.28 39.7599 117.755 39.7504 117.375 40.0811C117.511 40.5912 118.47 39.9583 118.506 40.0149C118.542 40.9312 117.855 40.3739 117.411 40.4967C117.194 40.5534 117.185 40.799 117.103 40.799C116.859 40.8084 116.524 40.525 116.225 40.5817L116.334 41.0257L114.533 40.6006C114.614 41.7625 115.139 41.2052 115.9 41.1391L115.709 41.857L115.592 41.5547C115.04 41.2713 114.479 41.7625 114.243 41.7531C114.135 41.7531 114.216 41.5264 114.126 41.4791C113.926 41.3941 113.465 41.3469 113.229 41.2335C113.293 40.884 113.945 41.1957 113.827 40.6951C113.175 41.054 112.424 39.8638 112.008 40.5628L112.415 40.7423L111.419 40.9596L112.523 41.2619C112.505 41.498 111.564 41.498 111.347 41.5547C111.238 41.583 111.22 41.7625 111.193 41.772C111.021 41.8192 110.433 41.5075 110.505 42.0648L111.817 42.471L112.116 42.1782L112.288 42.6977C112.098 43.1889 108.749 42.7922 108.125 42.7638C107.79 42.7449 107.473 42.8772 107.138 42.8583C106.523 42.8111 105.916 42.3671 105.255 42.5655L105.527 41.5547L104.74 41.7247L104.93 42.2537L104.178 42.7922C104.106 42.7827 104.142 42.5088 104.034 42.4804C103.454 42.3104 101.535 42.7827 101.309 42.5749C101.554 42.3199 101.626 41.9703 101.617 41.6114C101.599 41.1674 101.237 41.5453 100.956 41.5264L101.21 41.9042L100.784 41.9514L100.902 42.3954L100.395 42.4616C100.196 42.4143 100.16 41.7058 99.6709 41.8664L99.6166 42.5938L99.0916 42.112C99.0735 42.2348 99.0916 42.4049 99.0283 42.4993C98.7839 42.8489 96.3944 42.7733 95.8423 43C94.91 42.8489 94.5299 42.9339 93.851 42.5371C93.2989 42.2159 92.258 42.8016 91.6154 42.8489C91.0814 42.8866 89.2983 42.8961 88.882 42.6788C88.71 42.5938 88.8548 42.386 88.7281 42.3765L88.5471 42.6599L87.5696 42.7166L87.47 42.4427C84.7456 42.386 82.1298 42.6033 79.4235 42.5844C77.2241 42.5749 74.9704 42.3388 72.6895 42.2443C71.8659 42.2065 70.7254 42.4993 70.0104 42.471C66.9692 42.3387 63.9099 42.4616 60.8326 42.471C51.2746 42.5088 41.5899 42.6127 32.0047 42.5371C23.2071 42.471 14.8619 42.915 6.26337 40.4684C5.71125 40.3078 4.8333 40.3267 4.34454 40.1C3.88293 39.8827 2.8511 38.938 2.39855 38.6547C2.11796 38.4846 1.09519 38.2674 1.00467 37.9934C1.14949 37.1243 0.298687 35.8396 1.32146 35.4051L1.33957 35.1217L0.941316 34.7816C0.877958 34.4793 1.21285 34.2621 1.24 34.0637C1.26716 33.8653 0.96847 33.667 1.02278 33.3458C1.05898 33.1096 1.37577 32.949 1.36672 32.6373C1.35767 32.42 1.12234 32.2311 1.12234 32.0233C1.12234 31.7116 1.60205 31.3715 1.67446 30.9842C1.75592 30.5685 1.43913 30.0962 1.72876 29.605C1.84643 29.3972 2.12701 29.4066 2.15417 29.2838C2.20847 29.0571 2.21752 28.0652 2.26278 27.7252C2.31709 27.3568 2.52526 26.9789 2.47095 26.5633C1.81927 26.0248 0.796498 26.176 0.642629 25.1652C0.588323 24.8346 0.506863 23.4554 0.579271 23.1909C0.642629 22.9453 0.896061 22.8225 0.887009 22.558C0.217227 22.3974 0.506863 21.5189 0 21.2261C0.226278 20.8388 0.135767 20.357 0.253431 19.9697C0.343942 19.658 0.633578 19.4312 0.696936 19.0817C0.787447 18.6188 0.769345 17.7309 0.8146 17.2208L1.40292 17.0224C1.40292 16.7957 1.28526 16.5784 1.30336 16.3517C1.34862 15.6527 1.52059 14.8875 1.58395 14.3302C1.6111 14.0846 1.33957 13.8673 1.38482 13.6123C1.44818 13.2911 2.54336 11.6663 2.8511 11.5907C3.36702 11.4679 3.85578 11.7891 4.19972 11.7608C5.19534 11.6757 5.53928 11.7608 6.47155 11.7608C8.39944 11.7891 10.264 11.1467 12.21 11.3451C12.2733 11.2884 12.21 9.82425 12.2462 9.54086C12.4091 7.93497 12.7078 5.73396 12.6987 4.12808C12.6987 3.77856 12.4634 3.47627 12.4996 3.25901C12.5358 3.04174 12.8526 2.57887 12.925 2.20101C12.9703 1.9743 12.8254 1.71924 12.8797 1.53032C13.0246 1.02021 15.3145 0.859622 15.7851 0.897408C16.3644 0.935193 16.826 1.27526 17.3057 1.31305C18.3195 1.39807 19.7857 0.991872 20.8447 0.982425C21.5779 0.982425 22.3472 1.20914 23.0713 1.25637C23.7954 1.3036 25.0173 1.11467 25.7595 1.20914C26.0401 1.24692 26.8185 1.80426 27.1262 1.87983C27.5154 1.9743 30.7195 2.06876 31.0272 1.99319C31.2897 1.92706 31.3531 1.43585 31.6789 1.36028C32.041 1.27526 32.5116 1.45475 32.9008 1.40751C35.417 1.14301 38.7297 1.25637 41.3546 1.28471C41.9519 1.28471 42.6217 1.23748 43.0109 1.7098L43.7531 1.45475L44.1423 1.93651L44.4138 1.9554C44.8935 1.1808 45.8439 1.62478 46.4232 1.58699C47.989 1.50198 49.8264 0.991872 51.2836 1.058C52.8314 1.12412 54.3701 1.36973 55.9268 1.46419L55.3295 2.00264L56.0717 2.49385L56.1622 2.21046L56.4156 2.52219C56.6419 1.79482 58.0539 2.15378 58.7055 1.9554C58.4159 1.37917 57.194 2.17267 57.2031 1.26582C57.6918 1.16191 58.2349 1.53976 58.6512 1.51142C58.9228 1.50198 59.6016 1.21859 59.9817 1.20914C60.8869 1.1808 61.8734 1.3225 62.6971 1.29416C64.2086 1.24692 65.874 0.94464 67.4127 1.10523C67.6842 1.13357 68.2907 1.19969 68.1549 1.60589C67.6842 1.3036 67.3494 1.81371 66.9421 1.81371C66.5348 1.81371 65.8016 1.34139 65.2042 1.54921L65.1771 1.98374L66.218 2.34271L66.4352 2.07821C66.399 2.68278 66.8606 2.39938 66.9783 2.49385C67.0688 2.56942 67.0416 2.84337 67.1774 2.88115C67.6118 2.99451 68.5169 2.45606 68.9242 2.70167L68.9514 2.26714L68.526 2.2388L68.698 1.89873L68.4174 1.71924C68.4536 0.821837 71.178 1.3225 71.721 0.935193V0.566784C72.6986 0.595123 73.4951 0.283392 74.4364 0.623462C74.545 0.661248 74.5269 0.859622 74.5993 0.887961C74.6989 0.925747 75.3234 0.746265 75.5135 0.831283C75.7307 0.538445 74.9432 0.434534 75.4049 0.311731C75.9932 0.151142 77.0793 0.462873 77.7129 0.47232C79.1792 0.500659 80.8898 0.0850176 82.3923 0.170035C82.7906 0.188928 83.2431 0.47232 83.6957 0.396749C83.8043 0.925747 83.1979 0.557337 83.1164 0.642355C83.0892 0.850176 83.1345 1.08634 83.0802 1.27526C83.0349 1.42641 82.6457 1.24692 82.7725 1.64367L84.3021 1.89873L83.8586 2.22935L84.6913 2.3616L84.5193 2.78669C85.1982 2.90949 84.9628 2.19156 85.4787 2.18212C86.1847 2.8906 86.8726 2.79613 87.7596 2.73001L87.2799 2.11599L86.6825 2.06876C86.7097 1.94596 86.6825 1.67201 86.7097 1.63423C86.9903 1.3225 86.9088 2.15378 87.2528 1.96485C87.2709 1.9554 87.0898 1.62478 87.3523 1.53976C87.6239 1.96485 88.0855 1.87983 88.5199 1.91762L88.0583 2.46551C88.5742 2.55053 89.5789 2.69222 90.0677 2.61665C90.2125 2.59776 90.1039 2.17267 90.4569 2.34271L90.5021 2.78669L90.6107 2.21046L91.4615 2.12544L90.8642 2.66388C91.3258 2.80558 91.7783 2.60721 92.2037 2.61665C92.4753 2.61665 93.0636 3.02285 93.2627 2.55053C92.2942 2.59776 93.1812 1.49253 92.3395 1.60589L92.9097 1.50198C93.2808 1.25637 91.6063 1.26582 91.4615 1.26582C90.7646 1.29416 90.0496 1.8326 89.8595 0.840729L93.2265 0.935193L93.0455 1.51142C93.3804 1.55866 93.9687 1.89873 94.1769 1.4453C93.9868 1.45475 93.317 1.06744 93.5161 0.81239L99.508 0.623462L99.5985 0.226714C100.123 0.292838 100.495 0.623462 101.056 0.642355C101.4 0.651801 101.626 0.453427 101.771 0.462873C102.784 0.462873 103.825 0.661248 104.848 0.623462L104.966 0.207821L106.595 0.0566784L108.025 0.547891V0.170035C108.242 0.10391 108.496 0 108.713 0C108.984 0 110.224 0.207821 110.496 0.273946C110.813 0.358963 111.003 0.642355 111.455 0.699033C112.216 0.784051 111.718 0.377856 112.071 0.264499C112.379 0.170035 114.777 0.160589 114.931 0.302285L114.759 0.727373L115.456 0.774605L115.212 0.170035C115.728 0.481766 116.461 0.292838 116.922 0.443981C117.076 0.491213 116.904 0.991872 117.891 0.623462C119.728 -0.0566784 119.601 0.387302 121.312 0.425088C123.222 0.47232 125.15 0.377856 127.06 0.491213C129.693 0.642355 132.02 1.39807 134.563 0.717926C135.459 0.481766 136.138 1.13357 136.898 1.28471C137.658 1.43585 138.944 0.821837 139.451 1.90817H139.423ZM91.9865 29.7373L90.1401 29.9734C90.3482 30.2663 91.018 30.1907 91.3167 30.1435C91.5792 30.1057 92.0589 30.1529 91.9774 29.7467L91.9865 29.7373ZM91.9141 35.1595C91.0723 34.8855 90.3392 35.0367 89.769 35.7357L91.1809 35.6979C90.9004 36.1797 91.1991 36.5103 91.6969 36.3214L91.6064 35.5185C91.8145 35.3768 91.9684 35.5562 91.9231 35.1689L91.9141 35.1595ZM111.754 39.3726L111.455 39.6465L110.976 39.467C111.066 39.9299 110.768 39.911 110.695 39.4482C110.514 39.5521 110.279 39.656 110.071 39.6654C109.727 39.6843 109.003 39.3348 109.039 39.911L112.858 40.1566L113.401 39.8638L113.13 39.4954C112.641 39.7315 112.098 39.8543 111.591 39.656L111.754 39.3726ZM105.545 39.656C104.993 39.7127 104.088 39.2781 103.708 39.8166C104.296 39.8166 105.083 40.2605 105.545 39.656ZM104.387 40.1566C103.735 40.3361 102.92 40.5061 103.029 41.3658L101.762 41.583L103.02 41.6775C103.083 41.7909 102.821 42.2065 103.201 42.1309L103.726 41.6586L103.309 41.5547C103.183 41.2146 103.753 40.7895 103.997 40.7801C104.215 40.7801 104.414 41.0257 104.549 41.0446C104.577 41.0446 104.721 40.6101 105.056 40.7895L105.002 40.5156L104.812 40.6006V40.3361L104.368 40.6006L104.396 40.1566H104.387ZM106.749 40.629L105.871 40.5628L105.165 41.243H106.151C106.305 40.6006 106.432 40.969 106.749 40.629ZM99.2727 40.2889C98.811 40.1377 98.3223 40.3078 97.8607 40.2794L97.743 40.7045L98.6481 40.629L98.7296 40.9974C99.0192 41.328 98.9921 40.7518 99.2364 40.6856C99.4265 40.6384 99.6528 40.7045 99.8519 40.714L99.3994 40.5345C99.2998 40.5156 99.2998 40.2983 99.2817 40.2983L99.2727 40.2889Z" fill="#CFFF55"/>
</svg>
