<svg width="15" height="18" viewBox="0 0 15 18" fill="none" xmlns="http://www.w3.org/2000/svg">
<path id="Vector" fill-rule="evenodd" clip-rule="evenodd" d="M14.5472 4.81882C14.1535 4.6825 13.7383 4.60643 13.3181 4.59364C11.9668 4.50357 9.80156 4.50357 8.8329 4.50357C9.16664 3.82053 9.82598 2.47696 10.1434 1.86148C10.1841 1.7714 10.3551 1.56874 10.3551 1.41112C10.3551 1.25349 10.0213 0.945751 9.79342 1.31354C9.79342 1.35858 9.70388 1.47117 9.62248 1.62879C9.16664 2.47696 8.05145 4.6762 8.05145 4.6762C8.02714 4.7204 8.01447 4.76926 8.01447 4.81882C8.01447 4.86837 8.02714 4.91723 8.05145 4.96143C8.08007 5.00263 8.11998 5.03613 8.16715 5.05854C8.21432 5.08095 8.26708 5.09147 8.32007 5.08903C10.1523 5.07386 11.984 5.15405 13.8065 5.32922H13.9204C13.8882 5.38587 13.8529 5.44099 13.8146 5.49435C13.3042 6.09743 12.7609 6.67614 12.1866 7.22822C11.1528 8.24152 9.8911 9.40495 8.8329 10.3582C7.92935 11.2064 3.33836 15.162 1.31963 16.6557L1.00217 16.8809C1.19314 16.2831 1.46672 15.7104 1.81617 15.177C2.736 13.6158 4.20935 11.5667 5.53618 9.54756C5.62 9.44763 5.66549 9.32487 5.66549 9.19853C5.66549 9.0722 5.62 8.94943 5.53618 8.84951C5.42634 8.72636 5.27409 8.6416 5.10475 8.60932C4.79376 8.57612 4.47965 8.57612 4.16865 8.60932L1.50685 8.66936H0.977749C1.04287 8.53426 1.14055 8.36913 1.20567 8.20399C1.93827 6.30499 3.90003 1.85397 4.52681 0.698055C4.87683 0.61549 5.70712 0.600478 5.78038 0.592972C6.39088 0.547936 7.01767 0.525418 7.64445 0.510406H10.4935C10.5288 0.510559 10.5637 0.503882 10.596 0.490807C10.6283 0.477731 10.6573 0.458548 10.6811 0.434497C10.7049 0.410446 10.7229 0.382061 10.7341 0.351178C10.7452 0.320295 10.7492 0.287599 10.7458 0.255205C10.7492 0.22281 10.7452 0.190114 10.7341 0.159231C10.7229 0.128348 10.7049 0.0999635 10.6811 0.0759123C10.6573 0.0518611 10.6283 0.0326779 10.596 0.0196024C10.5637 0.00652685 10.5288 -0.000150237 10.4935 2.56451e-06H7.15605C6.68392 2.56451e-06 6.20366 2.56689e-06 5.71526 0.0525441H4.40471C4.25898 0.0645983 4.12436 0.129366 4.03027 0.232687C3.44418 1.20095 1.25451 5.90718 0.432365 7.88875C0.311647 8.15808 0.208358 8.43378 0.123043 8.7144C0.0945064 8.793 0.0900458 8.87733 0.110153 8.95812C0.13026 9.0389 0.174155 9.113 0.237004 9.17226C0.372649 9.27644 0.535352 9.34628 0.709127 9.37492C0.97986 9.39849 1.2524 9.39849 1.52313 9.37492L4.15237 9.38243C4.26837 9.39502 4.38284 9.41764 4.49425 9.44998C2.9395 11.7543 1.23823 14.0586 0.473066 15.6124C0.226382 16.0554 0.0691611 16.5361 0.00908287 17.031C-0.015044 17.199 0.00909746 17.37 0.0790933 17.5267C0.149089 17.6835 0.262486 17.8205 0.407945 17.9242C0.497712 17.9738 0.600402 18 0.705057 18C0.809712 18 0.912402 17.9738 1.00217 17.9242C1.33174 17.7492 1.64247 17.5456 1.93013 17.3162C3.94887 15.815 8.53986 11.7543 9.45154 10.9061C10.9086 9.55506 12.7076 7.77616 13.8309 6.59022C14.2683 6.18836 14.6021 5.70097 14.8077 5.16409C14.801 5.09051 14.7734 5.01986 14.7277 4.95925C14.6819 4.89864 14.6197 4.8502 14.5472 4.81882Z" fill="#CFFF55"/>
</svg>
