<svg width="15" height="16" viewBox="0 0 15 16" fill="none" xmlns="http://www.w3.org/2000/svg">
<path id="Vector" fill-rule="evenodd" clip-rule="evenodd" d="M14.7775 4.00174C14.7024 3.26331 14.7337 1.78643 14.2022 1.37995C13.0079 0.458598 10.4129 0.709261 8.69331 0.641514C6.50477 0.560218 4.22242 0.749909 2.05264 0.81088C2.0221 0.805143 1.99077 0.806709 1.96085 0.815468C1.93093 0.824228 1.90314 0.83997 1.87942 0.861591C1.85571 0.883212 1.83664 0.91019 1.82356 0.940634C1.81048 0.971077 1.80371 1.00425 1.80371 1.03783C1.80371 1.07141 1.81048 1.10459 1.82356 1.13503C1.83664 1.16547 1.85571 1.19245 1.87942 1.21407C1.90314 1.23569 1.93093 1.25143 1.96085 1.26019C1.99077 1.26895 2.0221 1.27052 2.05264 1.26478C4.20992 1.26478 6.461 1.08864 8.6683 1.21059C10.1878 1.29866 12.839 1.12251 13.8333 1.88805C14.0709 2.07774 14.0771 3.54784 14.1272 4.05594C14.3386 5.87703 14.3533 7.71863 14.1709 9.54341C14.1424 10.149 14.0501 10.7491 13.8958 11.3319C12.3201 12.1923 1.55865 12.8223 0.920844 11.7113C0.682332 10.7953 0.54794 9.85113 0.520652 8.89982C0.434207 6.44459 0.559813 3.98599 0.895832 1.55609C0.932316 1.51656 0.952813 1.46295 0.952813 1.40705C0.952813 1.35115 0.932316 1.29754 0.895832 1.25801C0.859347 1.21848 0.809863 1.19627 0.758266 1.19627C0.706668 1.19627 0.657185 1.21848 0.6207 1.25801C0.376833 1.52222 0.426857 2.36905 0.383086 2.66036C0.0289067 4.93787 -0.0802079 7.25221 0.0579304 9.55696C0.0877166 10.4021 0.215874 11.2397 0.439363 12.05C0.964614 13.0053 4.39126 13.0391 5.44176 13.0459C5.02668 13.6233 4.82794 14.3491 4.88524 15.0783C4.40376 15.0783 3.95355 15.1596 3.5346 15.1799C3.48484 15.1799 3.43713 15.2013 3.40195 15.2395C3.36677 15.2776 3.34701 15.3293 3.34701 15.3832C3.34701 15.4371 3.36677 15.4888 3.40195 15.5269C3.43713 15.565 3.48484 15.5864 3.5346 15.5864C4.78519 15.6338 5.7419 15.7693 7.28639 15.7558C8.83088 15.7422 9.82511 15.6 11.082 15.4983C11.1125 15.5041 11.1438 15.5025 11.1737 15.4937C11.2037 15.485 11.2315 15.4692 11.2552 15.4476C11.2789 15.426 11.298 15.399 11.311 15.3686C11.3241 15.3381 11.3309 15.305 11.3309 15.2714C11.3309 15.2378 11.3241 15.2046 11.311 15.1742C11.298 15.1437 11.2789 15.1168 11.2552 15.0951C11.2315 15.0735 11.2037 15.0578 11.1737 15.049C11.1438 15.0403 11.1125 15.0387 11.082 15.0444H9.93141C9.85135 14.2962 9.63905 13.5717 9.30611 12.9104C10.144 12.8427 14.0271 12.5514 14.4898 11.8061C14.7455 11.1259 14.8812 10.3998 14.89 9.66535C15.0677 7.77966 15.0299 5.8774 14.7775 4.00174ZM9.44993 15.0444C7.73661 15.0038 6.83618 14.9835 5.35422 15.0444C5.45426 14.7802 5.59808 14.4347 5.67312 14.1705C5.76288 13.8039 5.8256 13.4301 5.86071 13.0527C5.86071 12.9578 5.64811 13.134 8.78711 12.924C8.84375 13.6791 9.07141 14.4074 9.44993 15.0444Z" fill="white"/>
</svg>
