<svg width="25" height="24" viewBox="0 0 25 24" fill="none" xmlns="http://www.w3.org/2000/svg">
<g id="Group">
<path id="Vector" d="M23.8057 8.25984C23.5173 6.86339 22.9418 5.54211 22.1157 4.37984C20.3857 1.80984 19.4957 1.04984 16.8057 0.459844C15.9621 0.270362 15.1069 0.136739 14.2457 0.0598439C13.3809 -0.019948 12.5105 -0.019948 11.6457 0.0598439C10.9211 0.136847 10.2028 0.263816 9.49571 0.439844C9.01565 0.557733 8.54711 0.718374 8.09571 0.919844C7.25432 1.28907 6.44489 1.72723 5.67571 2.22984C4.88568 2.73617 4.16611 3.34479 3.53571 4.03984C2.81263 4.84444 2.17582 5.72256 1.63571 6.65984C1.10372 7.60186 0.700137 8.61081 0.43571 9.65984C0.274457 10.2938 0.160807 10.9389 0.0957095 11.5898C0.00613739 12.2525 -0.0206482 12.9221 0.0157095 13.5898C0.118207 14.6325 0.406058 15.6484 0.86571 16.5898C1.29848 17.5335 1.84594 18.4202 2.49571 19.2298C2.86571 19.6798 3.20571 20.1298 3.59571 20.5398C3.87357 20.8409 4.18189 21.1123 4.51571 21.3498C6.11771 22.454 8.00137 23.0784 9.94571 23.1498C11.8353 23.2224 13.7247 22.9998 15.5457 22.4898C17.1658 22.1252 18.6897 21.4195 20.0157 20.4198C21.2676 19.3394 22.3144 18.0419 23.1057 16.5898C23.3788 16.0728 23.5806 15.5211 23.7057 14.9498C23.8961 14.1263 24 13.285 24.0157 12.4398C24.0774 11.043 24.0071 9.64347 23.8057 8.25984ZM23.1257 12.4298C23.1046 13.0725 23.0243 13.7119 22.8857 14.3398C22.7764 14.9473 22.574 15.5342 22.2857 16.0798C21.5392 17.4127 20.5605 18.6014 19.3957 19.5898C18.1661 20.4827 16.7568 21.097 15.2657 21.3898C13.5571 21.858 11.7853 22.0537 10.0157 21.9698C8.28753 21.9085 6.61241 21.357 5.18571 20.3798C4.91545 20.184 4.66433 19.963 4.43571 19.7198C4.06571 19.3298 3.73571 18.8998 3.43571 18.4798C2.84084 17.7432 2.33718 16.9374 1.93571 16.0798C1.53228 15.2473 1.27842 14.3503 1.18571 13.4298C1.13622 12.8442 1.13622 12.2555 1.18571 11.6698C1.23443 11.0802 1.32804 10.4952 1.46571 9.91984C1.68411 8.95013 2.03402 8.01481 2.50571 7.13984C2.99368 6.24919 3.57711 5.41428 4.24571 4.64984C4.80215 3.999 5.44474 3.42707 6.15571 2.94984C6.88061 2.46056 7.64297 2.02922 8.43571 1.65984C8.94078 1.41952 9.47059 1.2351 10.0157 1.10984C10.5769 0.983265 11.1443 0.886463 11.7157 0.819844C12.5345 0.712423 13.3621 0.688968 14.1857 0.749844C15.0206 0.791327 15.8504 0.905086 16.6657 1.08984C18.9157 1.63984 19.7657 2.08984 21.4657 4.78984C22.222 5.87921 22.7493 7.11073 23.0157 8.40984C23.1847 9.74295 23.2215 11.0895 23.1257 12.4298Z" fill="#CFFF55"/>
<path id="Vector_2" d="M13.2255 13.07C13.0155 12.86 12.7855 12.67 12.5855 12.45C12.4913 12.3403 12.4169 12.2151 12.3655 12.08C12.2994 11.8141 12.2994 11.536 12.3655 11.27C12.4355 10.7 12.5955 10.12 12.6355 9.64001C12.6955 8.36001 12.5855 7.03001 12.6355 5.72001C12.6355 5.17779 12.6756 4.63632 12.7555 4.10001C12.7627 4.06127 12.7623 4.02149 12.7541 3.98293C12.746 3.94437 12.7303 3.90779 12.708 3.87529C12.6857 3.84279 12.6573 3.81499 12.6242 3.7935C12.5912 3.772 12.5542 3.75723 12.5155 3.75001C12.4774 3.74127 12.4379 3.74033 12.3993 3.74726C12.3608 3.75418 12.3241 3.76883 12.2914 3.79032C12.2587 3.81181 12.2307 3.83969 12.2091 3.87229C12.1874 3.90489 12.1726 3.94154 12.1655 3.98001C12.0186 4.53497 11.9116 5.09975 11.8455 5.67001C11.6955 6.96001 11.6855 8.27001 11.5155 9.54001C11.5155 10.09 11.2355 10.81 11.2255 11.46C11.2193 11.8029 11.284 12.1433 11.4155 12.46C11.531 12.7095 11.6902 12.9364 11.8855 13.13C12.1155 13.35 12.3855 13.53 12.6455 13.74L14.9155 15.61C14.9858 15.6684 15.0764 15.6964 15.1673 15.688C15.2583 15.6795 15.3422 15.6353 15.4005 15.565C15.4589 15.4947 15.4869 15.4041 15.4785 15.3132C15.47 15.2222 15.4258 15.1384 15.3555 15.08L13.2255 13.07Z" fill="#CFFF55"/>
<path id="Vector_3" d="M12.4056 18.8597V17.8597C12.4056 17.5497 12.3556 17.2397 12.3256 16.9397C12.3332 16.8955 12.3307 16.8501 12.3184 16.807C12.306 16.7639 12.2842 16.724 12.2545 16.6904C12.2247 16.6569 12.1878 16.6304 12.1465 16.6129C12.1052 16.5955 12.0604 16.5876 12.0156 16.5897C11.9351 16.5897 11.8577 16.6209 11.7999 16.6769C11.742 16.7329 11.7082 16.8092 11.7056 16.8897C11.7056 17.1897 11.6056 17.4897 11.5656 17.7997C11.5256 18.1097 11.5656 18.2097 11.5656 18.4197C11.5751 18.9559 11.6455 19.4894 11.7756 20.0097C11.8034 20.0888 11.8586 20.1554 11.9313 20.1972C12.004 20.2391 12.0893 20.2534 12.1716 20.2377C12.254 20.2219 12.328 20.1771 12.3801 20.1114C12.4322 20.0457 12.459 19.9635 12.4556 19.8797C12.4188 19.541 12.4021 19.2004 12.4056 18.8597Z" fill="#CFFF55"/>
<path id="Vector_4" d="M21.2456 10.9196C20.6556 10.9196 20.0756 10.8296 19.4956 10.8596C19.0911 10.8848 18.6896 10.945 18.2956 11.0396C18.2561 11.0434 18.2178 11.0549 18.1828 11.0736C18.1478 11.0922 18.1168 11.1176 18.0917 11.1483C18.0666 11.179 18.0479 11.2144 18.0365 11.2524C18.0251 11.2903 18.0214 11.3302 18.0256 11.3696C18.0293 11.4091 18.0408 11.4474 18.0595 11.4824C18.0782 11.5174 18.1036 11.5484 18.1343 11.5735C18.1649 11.5986 18.2003 11.6173 18.2383 11.6287C18.2763 11.6401 18.3161 11.6438 18.3556 11.6396C18.6456 11.6396 18.9256 11.6396 19.2156 11.6996H19.7956C20.2904 11.6879 20.7844 11.6511 21.2756 11.5896C21.3657 11.5896 21.4522 11.5538 21.516 11.4901C21.5797 11.4263 21.6156 11.3398 21.6156 11.2496C21.6156 11.1595 21.5797 11.073 21.516 11.0092C21.4522 10.9455 21.3657 10.9096 21.2756 10.9096L21.2456 10.9196Z" fill="#CFFF55"/>
<path id="Vector_5" d="M6.65562 11.1797C6.23232 11.1096 5.80458 11.0695 5.37562 11.0597H3.93562C3.47628 11.0947 3.01495 11.0947 2.55562 11.0597C2.51686 11.0509 2.47674 11.0499 2.43758 11.0567C2.39842 11.0635 2.36101 11.078 2.32751 11.0994C2.29402 11.1208 2.26511 11.1487 2.24247 11.1813C2.21983 11.214 2.2039 11.2509 2.19562 11.2897C2.18047 11.3678 2.1959 11.4487 2.23871 11.5157C2.28151 11.5827 2.34843 11.6307 2.42562 11.6497C2.84532 11.7813 3.2777 11.8685 3.71562 11.9097C4.20182 11.9397 4.68941 11.9397 5.17562 11.9097C5.65562 11.9097 6.11562 11.8497 6.58562 11.9097C6.63532 11.9215 6.687 11.9222 6.73702 11.9119C6.78705 11.9016 6.8342 11.8804 6.87518 11.8499C6.91615 11.8194 6.94996 11.7803 6.97422 11.7354C6.99848 11.6904 7.01261 11.6407 7.01562 11.5897C7.02671 11.5379 7.02552 11.4842 7.01215 11.4329C6.99878 11.3816 6.9736 11.3341 6.93863 11.2943C6.90365 11.2544 6.85984 11.2233 6.8107 11.2035C6.76156 11.1836 6.70845 11.1754 6.65562 11.1797Z" fill="#CFFF55"/>
<path id="Vector_6" d="M5.37581 7.47003C5.52136 7.60987 5.6786 7.737 5.84581 7.85003C5.99613 7.93861 6.13688 8.04249 6.26581 8.16003C6.32128 8.23145 6.40224 8.27862 6.49172 8.29167C6.5812 8.30472 6.67226 8.28263 6.74581 8.23003C6.81792 8.1728 6.86537 8.09011 6.87839 7.99897C6.8914 7.90783 6.86901 7.81517 6.81581 7.74003C6.67363 7.51497 6.50213 7.30984 6.30581 7.13003C6.17435 7.0156 6.0339 6.91194 5.88581 6.82003C5.73581 6.73003 5.58581 6.68003 5.44581 6.59003C5.38879 6.53301 5.31145 6.50098 5.23081 6.50098C5.15017 6.50098 5.07284 6.53301 5.01581 6.59003C4.95879 6.64705 4.92676 6.72439 4.92676 6.80503C4.92676 6.88567 4.95879 6.96301 5.01581 7.02003C5.11835 7.1832 5.23913 7.33418 5.37581 7.47003Z" fill="#CFFF55"/>
<path id="Vector_7" d="M9.18562 4.58974C9.13385 4.49352 9.07711 4.40006 9.01562 4.30974C8.89562 4.16974 8.75562 4.05974 8.62562 3.92974C8.60395 3.89626 8.5759 3.86736 8.54307 3.84472C8.51023 3.82207 8.47326 3.80611 8.43426 3.79776C8.39526 3.7894 8.355 3.78881 8.31577 3.79601C8.27654 3.80321 8.23911 3.81807 8.20562 3.83974C8.17213 3.86141 8.14324 3.88946 8.1206 3.9223C8.09795 3.95513 8.08199 3.9921 8.07364 4.0311C8.06528 4.0701 8.06469 4.11037 8.07189 4.1496C8.07909 4.18883 8.09395 4.22626 8.11562 4.25974C8.20267 4.49026 8.30627 4.71418 8.42562 4.92974C8.60562 5.22974 8.85562 5.46974 9.04562 5.76974C9.06663 5.80914 9.0952 5.84401 9.12969 5.87237C9.16418 5.90073 9.20391 5.92201 9.24663 5.93501C9.28934 5.94801 9.3342 5.95247 9.37864 5.94814C9.42308 5.9438 9.46622 5.93075 9.50562 5.90974C9.546 5.88978 9.58187 5.86176 9.61101 5.82741C9.64015 5.79306 9.66195 5.7531 9.67506 5.71001C9.68818 5.66691 9.69233 5.62159 9.68727 5.57683C9.68221 5.53207 9.66803 5.48882 9.64562 5.44974C9.52 5.14909 9.36597 4.86112 9.18562 4.58974Z" fill="#CFFF55"/>
<path id="Vector_8" d="M15.7555 4.69973C15.8455 4.56973 15.9555 4.46973 16.0455 4.33973C16.1085 4.24523 16.1621 4.14474 16.2055 4.03973C16.2719 3.84634 16.3089 3.6441 16.3155 3.43973C16.3261 3.40165 16.3291 3.36184 16.3243 3.3226C16.3195 3.28336 16.3069 3.24546 16.2874 3.21107C16.2679 3.17669 16.2418 3.1465 16.2106 3.12224C16.1793 3.09799 16.1436 3.08014 16.1055 3.06973C16.0674 3.05765 16.0272 3.05357 15.9875 3.05773C15.9478 3.0619 15.9094 3.07423 15.8746 3.09394C15.8399 3.11366 15.8096 3.14034 15.7857 3.17231C15.7617 3.20428 15.7446 3.24085 15.7355 3.27973C15.6655 3.37973 15.5755 3.44973 15.5055 3.54973C15.4617 3.61753 15.4217 3.68763 15.3855 3.75973C15.2875 3.97048 15.204 4.18764 15.1355 4.40973C15.0976 4.49072 15.0932 4.58334 15.1232 4.66756C15.1531 4.75178 15.215 4.82082 15.2955 4.85973C15.3779 4.89802 15.472 4.90273 15.5579 4.87286C15.6437 4.843 15.7146 4.78091 15.7555 4.69973Z" fill="#CFFF55"/>
<path id="Vector_9" d="M18.5257 6.74965C18.7354 6.57013 18.9356 6.37987 19.1257 6.17965C19.1633 6.1539 19.1951 6.12065 19.2193 6.08198C19.2434 6.04331 19.2592 6.00007 19.2658 5.95498C19.2724 5.90988 19.2695 5.86392 19.2575 5.81997C19.2454 5.77603 19.2244 5.73506 19.1957 5.69965C19.1463 5.62178 19.0682 5.56655 18.9783 5.54595C18.8884 5.52536 18.794 5.54106 18.7157 5.58965C18.5557 5.67965 18.4057 5.73965 18.2557 5.83965C18.1524 5.90759 18.0554 5.98456 17.9657 6.06965C17.8215 6.22654 17.7034 6.40547 17.6157 6.59965C17.587 6.6276 17.5641 6.66103 17.5485 6.69796C17.5329 6.73489 17.5249 6.77456 17.5249 6.81465C17.5249 6.85473 17.5329 6.89441 17.5485 6.93134C17.5641 6.96826 17.587 7.00169 17.6157 7.02965C17.6718 7.08462 17.7472 7.11541 17.8257 7.11541C17.9042 7.11541 17.9796 7.08462 18.0357 7.02965C18.2257 6.91965 18.3857 6.85965 18.5257 6.74965Z" fill="#CFFF55"/>
<path id="Vector_10" d="M19.3058 14.1998C19.2313 14.1547 19.1504 14.121 19.0658 14.0998C18.9329 14.0851 18.7988 14.0851 18.6658 14.0998C18.5914 14.0731 18.5096 14.0758 18.4371 14.1074C18.3646 14.139 18.3069 14.1971 18.2758 14.2698C18.2521 14.3456 18.2574 14.4274 18.2907 14.4995C18.3239 14.5716 18.3828 14.6287 18.4558 14.6598C18.5858 14.7498 18.6758 14.8698 18.8158 14.9498C18.9558 15.0298 19.2358 15.1098 19.4258 15.2098C19.462 15.2361 19.5029 15.255 19.5463 15.2654C19.5897 15.2759 19.6348 15.2777 19.6789 15.2707C19.723 15.2637 19.7653 15.2482 19.8034 15.2248C19.8415 15.2015 19.8746 15.1709 19.9008 15.1348C19.9271 15.0987 19.946 15.0578 19.9564 15.0144C19.9669 14.971 19.9687 14.9259 19.9617 14.8818C19.9548 14.8377 19.9392 14.7954 19.9159 14.7573C19.8925 14.7192 19.862 14.6861 19.8258 14.6598C19.6763 14.4815 19.5011 14.3265 19.3058 14.1998Z" fill="#CFFF55"/>
<path id="Vector_11" d="M16.7757 17.28C16.7144 17.1867 16.644 17.0996 16.5657 17.02C16.4557 16.89 16.3257 16.79 16.2057 16.67C16.1869 16.635 16.1613 16.6041 16.1304 16.5791C16.0995 16.5541 16.0639 16.5355 16.0258 16.5243C15.9877 16.5131 15.9477 16.5096 15.9082 16.5141C15.8687 16.5185 15.8304 16.5307 15.7957 16.55C15.7287 16.5916 15.68 16.6571 15.6595 16.7333C15.6391 16.8094 15.6484 16.8905 15.6857 16.96C15.7608 17.2001 15.8613 17.4314 15.9857 17.65C16.0574 17.7684 16.1412 17.879 16.2357 17.98C16.3657 18.14 16.5057 18.27 16.6257 18.43C16.6717 18.5086 16.7466 18.5661 16.8343 18.5904C16.9221 18.6146 17.0158 18.6038 17.0957 18.56C17.1347 18.5373 17.1689 18.5071 17.1961 18.4711C17.2233 18.435 17.2431 18.394 17.2543 18.3502C17.2654 18.3064 17.2678 18.2609 17.2612 18.2162C17.2545 18.1716 17.2391 18.1287 17.2157 18.09C17.0968 17.8059 16.9494 17.5345 16.7757 17.28Z" fill="#CFFF55"/>
<path id="Vector_12" d="M8.06588 17.37C7.95172 17.4477 7.84158 17.5311 7.73588 17.62C7.66553 17.6804 7.60483 17.7512 7.55588 17.83C7.42379 18.0241 7.30678 18.228 7.20588 18.44C7.1578 18.5167 7.14037 18.6086 7.15705 18.6976C7.17372 18.7865 7.22329 18.8659 7.29588 18.92C7.33307 18.9463 7.37516 18.9649 7.41966 18.9746C7.46416 18.9843 7.51017 18.985 7.55494 18.9766C7.59971 18.9682 7.64234 18.9509 7.6803 18.9257C7.71825 18.9005 7.75076 18.868 7.77588 18.83C7.9661 18.6464 8.14636 18.4528 8.31588 18.25C8.41081 18.0888 8.48793 17.9178 8.54588 17.74C8.59495 17.6763 8.61672 17.5958 8.6064 17.5161C8.59609 17.4364 8.55454 17.364 8.49088 17.315C8.42723 17.2659 8.3467 17.2441 8.26699 17.2545C8.18729 17.2648 8.11495 17.3063 8.06588 17.37Z" fill="#CFFF55"/>
<path id="Vector_13" d="M5.51569 14.4897C5.27569 14.4897 5.04569 14.4897 4.81569 14.5697C4.65828 14.6267 4.50742 14.7005 4.36569 14.7897C4.32695 14.7969 4.29001 14.8117 4.25698 14.8332C4.22396 14.8547 4.19549 14.8824 4.1732 14.915C4.12819 14.9806 4.1111 15.0614 4.12569 15.1397C4.14028 15.2179 4.18535 15.2871 4.25098 15.3321C4.28348 15.3544 4.32006 15.3701 4.35861 15.3782C4.39717 15.3864 4.43695 15.3869 4.47569 15.3797C4.64536 15.3946 4.81602 15.3946 4.98569 15.3797C5.23147 15.3249 5.46983 15.241 5.69569 15.1297C5.78427 15.104 5.85917 15.0445 5.9041 14.964C5.94904 14.8835 5.96039 14.7885 5.93569 14.6997C5.90612 14.6174 5.84598 14.5496 5.76777 14.5105C5.68955 14.4714 5.59927 14.4639 5.51569 14.4897Z" fill="#CFFF55"/>
</g>
</svg>
